<?xml version="1.0" encoding="utf-8"?>
<!-- Generator: Adobe Illustrator 16.0.0, SVG Export Plug-In . SVG Version: 6.00 Build 0)  -->
<!DOCTYPE svg PUBLIC "-//W3C//DTD SVG 1.1 Basic//EN" "http://www.w3.org/Graphics/SVG/1.1/DTD/svg11-basic.dtd">
<svg version="1.1" baseProfile="basic" id="Layer_1"
	 xmlns="http://www.w3.org/2000/svg" xmlns:xlink="http://www.w3.org/1999/xlink" x="0px" y="0px" width="68px" height="34px"
	 viewBox="0 0 68 34" xml:space="preserve">
<circle fill="#999999" cx="17" cy="17" r="17"/>
<path fill="#FFFFFF" d="M25.828,14.625c-1.174,0-1.174,0-1.174,0S23.6,14.684,23.6,13.159s-0.412-5.689-5.105-5.689
	c-4.692,0-5.161,0-5.161,0s-5.457-0.235-5.457,5.572v7.861c0,0,0,5.63,5.396,5.63c5.399,0,8.331,0,8.331,0s5.514-0.175,5.514-5.807
	c0-3.872,0-4.927,0-4.927S27.293,14.625,25.828,14.625z M13.949,12.337h3.637c0.631,0,1.145,0.513,1.145,1.144
	c0,0.633-0.514,1.144-1.145,1.144h-3.637c-0.633,0-1.145-0.511-1.145-1.144C12.804,12.85,13.316,12.337,13.949,12.337z
	 M21.105,21.665h-7.157c-0.633,0-1.145-0.513-1.145-1.145c0-0.631,0.512-1.143,1.145-1.143h7.157c0.633,0,1.143,0.512,1.143,1.143
	C22.248,21.152,21.736,21.665,21.105,21.665z"/>
<circle fill="#666666" cx="51" cy="17" r="17"/>
<path fill="#FFFFFF" d="M59.828,14.625c-1.174,0-1.174,0-1.174,0S57.6,14.684,57.6,13.159s-0.412-5.689-5.105-5.689
	c-4.691,0-5.16,0-5.16,0s-5.457-0.235-5.457,5.572v7.861c0,0,0,5.63,5.396,5.63c5.398,0,8.33,0,8.33,0s5.514-0.175,5.514-5.807
	c0-3.872,0-4.927,0-4.927S61.293,14.625,59.828,14.625z M47.949,12.337h3.637c0.631,0,1.145,0.513,1.145,1.144
	c0,0.633-0.514,1.144-1.145,1.144h-3.637c-0.633,0-1.145-0.511-1.145-1.144C46.805,12.85,47.316,12.337,47.949,12.337z
	 M55.105,21.665h-7.156c-0.633,0-1.145-0.513-1.145-1.145c0-0.631,0.512-1.143,1.145-1.143h7.156c0.633,0,1.143,0.512,1.143,1.143
	C56.248,21.152,55.736,21.665,55.105,21.665z"/>
</svg>
