<?xml version="1.0" encoding="utf-8"?>
<!-- Generator: Adobe Illustrator 16.0.0, SVG Export Plug-In . SVG Version: 6.00 Build 0)  -->
<!DOCTYPE svg PUBLIC "-//W3C//DTD SVG 1.1//EN" "http://www.w3.org/Graphics/SVG/1.1/DTD/svg11.dtd">
<svg version="1.1" id="Layer_1" xmlns="http://www.w3.org/2000/svg" xmlns:xlink="http://www.w3.org/1999/xlink" x="0px" y="0px"
	 width="68px" height="34px" viewBox="0 0 68 34" enable-background="new 0 0 68 34" xml:space="preserve">
<circle fill="#999999" cx="17" cy="17" r="16"/>
<path fill="#FFFFFF" d="M25.309,14.765c-1.105,0-1.105,0-1.105,0s-0.992,0.056-0.992-1.379c0-1.436-0.388-5.354-4.805-5.354
	c-4.416,0-4.857,0-4.857,0s-5.136-0.222-5.136,5.244v7.398c0,0,0,5.3,5.079,5.3c5.082,0,7.841,0,7.841,0s5.19-0.166,5.19-5.465
	c0-3.645,0-4.638,0-4.638S26.688,14.765,25.309,14.765z M14.129,12.611h3.422c0.594,0,1.078,0.483,1.078,1.077
	c0,0.596-0.484,1.077-1.078,1.077h-3.422c-0.596,0-1.078-0.481-1.078-1.077C13.051,13.094,13.533,12.611,14.129,12.611z
	 M20.863,21.391h-6.735c-0.596,0-1.078-0.482-1.078-1.078c0-0.594,0.481-1.075,1.078-1.075h6.735c0.596,0,1.076,0.481,1.076,1.075
	C21.939,20.908,21.457,21.391,20.863,21.391z"/>
<circle fill="#666666" cx="51" cy="17" r="16"/>
<path fill="#FFFFFF" d="M59.309,14.765c-1.104,0-1.104,0-1.104,0s-0.993,0.056-0.993-1.379c0-1.436-0.388-5.354-4.804-5.354
	c-4.415,0-4.856,0-4.856,0s-5.137-0.222-5.137,5.244v7.398c0,0,0,5.3,5.078,5.3c5.081,0,7.841,0,7.841,0s5.19-0.166,5.19-5.465
	c0-3.645,0-4.638,0-4.638S60.688,14.765,59.309,14.765z M48.129,12.611h3.423c0.594,0,1.077,0.483,1.077,1.077
	c0,0.596-0.483,1.077-1.077,1.077h-3.423c-0.596,0-1.077-0.481-1.077-1.077C47.052,13.094,47.533,12.611,48.129,12.611z
	 M54.864,21.391h-6.735c-0.596,0-1.077-0.482-1.077-1.078c0-0.594,0.481-1.075,1.077-1.075h6.735c0.596,0,1.075,0.481,1.075,1.075
	C55.939,20.908,55.458,21.391,54.864,21.391z"/>
</svg>
