<?xml version="1.0" encoding="utf-8"?>
<!-- Generator: Adobe Illustrator 19.1.0, SVG Export Plug-In . SVG Version: 6.00 Build 0)  -->
<svg version="1.1" id="Layer_1" xmlns="http://www.w3.org/2000/svg" xmlns:xlink="http://www.w3.org/1999/xlink" x="0px" y="0px"
	 width="159px" height="53px" viewBox="0 0 159 53" style="enable-background:new 0 0 159 53;" xml:space="preserve">
<style type="text/css">
	.st0{fill:#555555;}
</style>
<g>
	<g>
		<path class="st0" d="M64.5,8.5c-0.9,0-1.6,0.3-2.2,0.9c-0.5,0.6-0.8,1.4-0.8,2.5c0,1.1,0.3,1.9,0.8,2.5c0.5,0.6,1.2,0.9,2.2,0.9
			c0.6,0,1.2-0.1,2-0.3l0,0.9c-0.6,0.2-1.3,0.3-2.1,0.3c-1.2,0-2.2-0.4-2.8-1.1s-1-1.8-1-3.2c0-0.9,0.2-1.6,0.5-2.3
			c0.3-0.6,0.8-1.1,1.4-1.5c0.6-0.4,1.3-0.5,2.1-0.5c0.9,0,1.6,0.2,2.3,0.5l-0.4,0.8C65.7,8.6,65.1,8.5,64.5,8.5z"/>
		<path class="st0" d="M73.5,12.9c0,1-0.3,1.8-0.8,2.4c-0.5,0.6-1.2,0.9-2.1,0.9c-0.6,0-1.1-0.1-1.5-0.4c-0.4-0.3-0.8-0.6-1-1.1
			c-0.2-0.5-0.4-1.1-0.4-1.7c0-1,0.3-1.8,0.8-2.4s1.2-0.9,2.1-0.9c0.9,0,1.6,0.3,2.1,0.9C73.3,11.2,73.5,11.9,73.5,12.9z M68.8,12.9
			c0,0.8,0.2,1.4,0.5,1.8c0.3,0.4,0.8,0.6,1.4,0.6c0.6,0,1.1-0.2,1.4-0.6c0.3-0.4,0.5-1,0.5-1.8c0-0.8-0.2-1.4-0.5-1.8
			c-0.3-0.4-0.8-0.6-1.4-0.6c-0.6,0-1.1,0.2-1.4,0.6S68.8,12.1,68.8,12.9z"/>
		<path class="st0" d="M83.2,16.1l0-4.1c0-0.5-0.1-0.9-0.3-1.1c-0.2-0.2-0.5-0.4-1-0.4c-0.6,0-1,0.2-1.3,0.5
			c-0.3,0.3-0.4,0.9-0.4,1.6l0,3.5l-0.9,0l0-4.1c0-0.5-0.1-0.9-0.3-1.1c-0.2-0.2-0.5-0.4-1-0.4c-0.6,0-1,0.2-1.3,0.5
			c-0.3,0.4-0.4,0.9-0.4,1.7l0,3.3l-0.9,0l0-6.3l0.8,0l0.2,0.9h0c0.2-0.3,0.4-0.5,0.8-0.7c0.3-0.2,0.7-0.3,1.1-0.3
			c1,0,1.6,0.4,1.9,1.1h0c0.2-0.3,0.5-0.6,0.8-0.8c0.4-0.2,0.8-0.3,1.2-0.3c0.7,0,1.2,0.2,1.6,0.5c0.4,0.4,0.5,0.9,0.5,1.7l0,4.1
			H83.2z"/>
		<path class="st0" d="M94.1,16.1l0-4.1c0-0.5-0.1-0.9-0.3-1.1c-0.2-0.2-0.5-0.4-1-0.4c-0.6,0-1,0.2-1.3,0.5
			c-0.3,0.3-0.4,0.9-0.4,1.6l0,3.5l-0.9,0l0-4.1c0-0.5-0.1-0.9-0.3-1.1c-0.2-0.2-0.5-0.4-1-0.4c-0.6,0-1,0.2-1.3,0.5
			C87.2,11.4,87,12,87,12.8l0,3.3l-0.9,0l0-6.3l0.8,0l0.2,0.9h0c0.2-0.3,0.4-0.5,0.8-0.7c0.3-0.2,0.7-0.3,1.1-0.3
			c1,0,1.6,0.4,1.9,1.1h0c0.2-0.3,0.5-0.6,0.8-0.8c0.4-0.2,0.8-0.3,1.2-0.3c0.7,0,1.2,0.2,1.6,0.5c0.4,0.4,0.5,0.9,0.5,1.7l0,4.1
			L94.1,16.1z"/>
		<path class="st0" d="M97.8,9.8l0,4.1c0,0.5,0.1,0.9,0.3,1.1c0.2,0.3,0.6,0.4,1.1,0.4c0.7,0,1.1-0.2,1.4-0.5
			c0.3-0.4,0.5-0.9,0.5-1.8l0-3.3l0.9,0l0,6.3l-0.8,0l-0.1-0.8h-0.1c-0.2,0.3-0.5,0.5-0.8,0.7c-0.3,0.2-0.7,0.2-1.2,0.2
			c-0.8,0-1.3-0.2-1.7-0.5c-0.4-0.4-0.6-0.9-0.6-1.7l0-4.1H97.8z"/>
		<path class="st0" d="M108.4,16l0-4c0-0.5-0.1-0.9-0.3-1.1c-0.2-0.3-0.6-0.4-1.1-0.4c-0.7,0-1.1,0.2-1.4,0.5
			c-0.3,0.4-0.5,0.9-0.5,1.8l0,3.3h-0.9l0-6.3h0.8l0.2,0.9h0c0.2-0.3,0.5-0.5,0.8-0.7c0.3-0.2,0.7-0.3,1.2-0.3
			c0.8,0,1.3,0.2,1.7,0.5c0.4,0.4,0.6,0.9,0.6,1.7l0,4.1L108.4,16z"/>
		<path class="st0" d="M111.2,8.1c0-0.2,0.1-0.4,0.2-0.5c0.1-0.1,0.2-0.2,0.4-0.2c0.2,0,0.3,0.1,0.4,0.2s0.2,0.3,0.2,0.5
			c0,0.2-0.1,0.4-0.2,0.5c-0.1,0.1-0.2,0.2-0.4,0.2c-0.2,0-0.3-0.1-0.4-0.2C111.3,8.5,111.2,8.3,111.2,8.1z M112.3,16l-0.9,0l0-6.3
			l0.9,0L112.3,16z"/>
		<path class="st0" d="M116.3,15.4c0.2,0,0.3,0,0.5,0c0.2,0,0.3-0.1,0.4-0.1l0,0.7c-0.1,0-0.3,0.1-0.5,0.1c-0.2,0-0.4,0-0.5,0
			c-1.2,0-1.8-0.6-1.8-1.9l0-3.7l-0.9,0v-0.5l0.9-0.4l0.4-1.3l0.5,0l0,1.4l1.8,0v0.7l-1.8,0l0,3.7c0,0.4,0.1,0.7,0.3,0.9
			C115.7,15.3,116,15.4,116.3,15.4z"/>
		<path class="st0" d="M117.4,9.8l1,0l1.4,3.6c0.3,0.8,0.5,1.4,0.6,1.8h0c0-0.2,0.2-0.5,0.3-1c0.2-0.5,0.7-1.9,1.5-4.3l1,0l-2.7,7.1
			c-0.3,0.7-0.6,1.2-0.9,1.5s-0.8,0.4-1.3,0.4c-0.3,0-0.6,0-0.9-0.1l0-0.8c0.2,0,0.4,0.1,0.7,0.1c0.7,0,1.1-0.4,1.4-1.1l0.3-0.9
			L117.4,9.8z"/>
		<path class="st0" d="M65.4,22.2c-1.1,0-2,0.4-2.6,1.1s-1,1.7-1,3c0,1.3,0.3,2.3,0.9,3c0.6,0.7,1.5,1.1,2.6,1.1
			c0.7,0,1.5-0.1,2.4-0.4l0,1c-0.7,0.3-1.6,0.4-2.6,0.4c-1.5,0-2.6-0.4-3.4-1.3s-1.2-2.2-1.2-3.8c0-1,0.2-1.9,0.6-2.7
			c0.4-0.8,0.9-1.4,1.7-1.8c0.7-0.4,1.6-0.6,2.6-0.6c1.1,0,2,0.2,2.8,0.6l-0.5,1C66.9,22.3,66.2,22.2,65.4,22.2z"/>
		<path class="st0" d="M77.6,31.3l-1.2,0l0-4.7l-5.3,0l0,4.7l-1.2,0l0-10l1.2,0l0,4.3l5.3,0l0-4.3l1.2,0L77.6,31.3z"/>
		<path class="st0" d="M86.6,31.3l-1.2-3.2l-4,0l-1.2,3.2l-1.2,0l4-10.1l1,0l3.9,10.1L86.6,31.3z M85,27l-1.2-3.1
			c-0.2-0.4-0.3-0.9-0.5-1.4c-0.1,0.4-0.2,0.9-0.4,1.4L81.8,27L85,27z"/>
		<path class="st0" d="M90.4,27.1l0,4.2l-1.2,0l0-10l2.7,0c1.2,0,2.1,0.2,2.7,0.7c0.6,0.5,0.9,1.2,0.9,2.1c0,1.3-0.7,2.2-2,2.7
			l2.7,4.5l-1.4,0l-2.4-4.2L90.4,27.1z M90.4,26.1l1.6,0c0.8,0,1.4-0.2,1.8-0.5c0.4-0.3,0.6-0.8,0.6-1.5c0-0.7-0.2-1.1-0.6-1.4
			c-0.4-0.3-1-0.4-1.9-0.4l-1.5,0L90.4,26.1z"/>
		<path class="st0" d="M101,31.3l-1.2,0l0-9l-3.2,0l0-1l7.5,0l0,1l-3.2,0L101,31.3z"/>
		<path class="st0" d="M65.4,37.4c-1.1,0-2,0.4-2.6,1.1s-1,1.7-1,3c0,1.3,0.3,2.3,0.9,3c0.6,0.7,1.5,1.1,2.6,1.1
			c0.7,0,1.5-0.1,2.4-0.4l0,1c-0.7,0.3-1.6,0.4-2.6,0.4c-1.5,0-2.6-0.4-3.4-1.3c-0.8-0.9-1.2-2.2-1.2-3.8c0-1,0.2-1.9,0.6-2.7
			c0.4-0.8,0.9-1.4,1.7-1.8c0.7-0.4,1.6-0.6,2.6-0.6c1.1,0,2,0.2,2.8,0.6l-0.5,1C67,37.5,66.2,37.4,65.4,37.4z"/>
		<path class="st0" d="M78.7,41.5c0,1.6-0.4,2.9-1.2,3.8s-1.9,1.4-3.4,1.4c-1.5,0-2.6-0.4-3.4-1.3c-0.8-0.9-1.2-2.2-1.2-3.8
			c0-1.6,0.4-2.9,1.2-3.8s1.9-1.3,3.4-1.3c1.4,0,2.6,0.5,3.4,1.4C78.3,38.6,78.7,39.8,78.7,41.5z M70.7,41.5c0,1.4,0.3,2.4,0.9,3.1
			c0.6,0.7,1.4,1.1,2.5,1c1.1,0,1.9-0.4,2.5-1c0.6-0.7,0.8-1.7,0.8-3.1c0-1.3-0.3-2.4-0.8-3.1c-0.6-0.7-1.4-1-2.5-1
			c-1.1,0-2,0.4-2.5,1.1C71,39.1,70.7,40.1,70.7,41.5z"/>
		<path class="st0" d="M85.4,46.5L82,37.6h-0.1c0.1,0.7,0.1,1.5,0.1,2.5l0,6.4l-1.1,0l0-10l1.8,0l3.2,8.3h0.1l3.2-8.3l1.7,0l0,10
			l-1.2,0l0-6.5c0-0.7,0-1.5,0.1-2.4h-0.1l-3.4,8.9L85.4,46.5z"/>
		<path class="st0" d="M100,39.4c0,1-0.3,1.8-1,2.3c-0.7,0.5-1.7,0.8-3,0.8l-1.2,0l0,3.9l-1.2,0l0-10l2.6,0
			C98.7,36.4,99.9,37.4,100,39.4z M94.8,41.5l1,0c1,0,1.8-0.2,2.2-0.5c0.5-0.3,0.7-0.9,0.7-1.6c0-0.7-0.2-1.2-0.7-1.5
			c-0.4-0.3-1.1-0.5-2-0.5l-1.3,0L94.8,41.5z"/>
		<path class="st0" d="M110.7,41.4c0,1.6-0.4,2.9-1.2,3.8s-1.9,1.4-3.4,1.4c-1.5,0-2.6-0.4-3.4-1.3c-0.8-0.9-1.2-2.2-1.2-3.8
			c0-1.6,0.4-2.9,1.2-3.8s1.9-1.3,3.4-1.3c1.4,0,2.6,0.5,3.4,1.4C110.3,38.6,110.7,39.8,110.7,41.4z M102.8,41.4
			c0,1.4,0.3,2.4,0.9,3.1c0.6,0.7,1.4,1.1,2.5,1c1.1,0,1.9-0.4,2.5-1c0.6-0.7,0.8-1.7,0.8-3.1c0-1.3-0.3-2.4-0.8-3.1
			c-0.6-0.7-1.4-1-2.5-1c-1.1,0-2,0.4-2.5,1.1C103,39.1,102.8,40.1,102.8,41.4z"/>
		<path class="st0" d="M120.8,46.4l-1.3,0L114,38l-0.1,0c0.1,1,0.1,1.9,0.1,2.7l0,5.7l-1.1,0l0-10l1.3,0l5.5,8.4h0.1
			c0-0.1,0-0.5-0.1-1.2c0-0.7,0-1.1,0-1.4l0-5.7l1.1,0L120.8,46.4z"/>
		<path class="st0" d="M129.1,46.4l-5.6,0l0-10l5.6,0l0,1l-4.4,0l0,3.2l4.2,0l0,1l-4.2,0l0,3.7l4.4,0V46.4z"/>
		<path class="st0" d="M139.2,46.4l-1.3,0l-5.5-8.4h-0.1c0.1,1,0.1,1.9,0.1,2.7l0,5.7h-1.1l0-10l1.3,0l5.5,8.4h0.1
			c0-0.1,0-0.5-0.1-1.2c0-0.7,0-1.1,0-1.4l0-5.7l1.1,0L139.2,46.4z"/>
		<path class="st0" d="M145,46.4l-1.2,0l0-9l-3.2,0l0-1l7.5,0l0,1l-3.2,0L145,46.4z"/>
		<path class="st0" d="M155.4,43.7c0,0.9-0.3,1.6-1,2.1c-0.6,0.5-1.5,0.7-2.6,0.7c-1.2,0-2.1-0.2-2.7-0.5l0-1.1
			c0.4,0.2,0.9,0.3,1.3,0.4c0.5,0.1,1,0.1,1.4,0.1c0.8,0,1.4-0.1,1.8-0.4c0.4-0.3,0.6-0.7,0.6-1.2c0-0.3-0.1-0.6-0.2-0.9
			s-0.4-0.4-0.7-0.6c-0.3-0.2-0.8-0.4-1.5-0.6c-0.9-0.3-1.6-0.7-2-1.2c-0.4-0.5-0.6-1.1-0.6-1.8c0-0.8,0.3-1.4,0.9-1.8
			c0.6-0.5,1.3-0.7,2.3-0.7c1,0,1.9,0.2,2.7,0.5l-0.4,1c-0.8-0.3-1.6-0.5-2.4-0.5c-0.6,0-1.1,0.1-1.4,0.4s-0.5,0.6-0.5,1.1
			c0,0.3,0.1,0.6,0.2,0.9s0.3,0.4,0.6,0.6c0.3,0.2,0.8,0.4,1.4,0.6c1,0.4,1.8,0.8,2.2,1.2C155.2,42.5,155.4,43.1,155.4,43.7z"/>
	</g>
	<g>
		<g>
			<polygon class="st0" points="49.6,51.3 0,51.3 0,1.7 21.9,1.7 21.9,4.5 2.8,4.5 2.8,48.5 46.8,48.5 46.8,4.5 27.7,4.5 27.7,1.7 
				49.6,1.7 			"/>
		</g>
		<rect x="8" y="33" class="st0" width="2.8" height="10.8"/>
		<rect x="13.2" y="28.5" class="st0" width="2.8" height="15.3"/>
		<rect x="18.3" y="26.5" class="st0" width="2.8" height="17.3"/>
		<rect x="38.7" y="23.8" class="st0" width="2.8" height="19.9"/>
		<rect x="23.4" y="28.5" class="st0" width="2.8" height="15.3"/>
		<rect x="33.6" y="29.2" class="st0" width="2.8" height="14.6"/>
		<rect x="28.5" y="32.2" class="st0" width="2.8" height="11.6"/>
	</g>
</g>
</svg>
