<?xml version="1.0" encoding="utf-8"?>
<!-- Generator: Adobe Illustrator 16.0.0, SVG Export Plug-In . SVG Version: 6.00 Build 0)  -->
<!DOCTYPE svg PUBLIC "-//W3C//DTD SVG 1.1//EN" "http://www.w3.org/Graphics/SVG/1.1/DTD/svg11.dtd">
<svg version="1.1" id="Layer_1" xmlns="http://www.w3.org/2000/svg" xmlns:xlink="http://www.w3.org/1999/xlink" x="0px" y="0px"
	 width="68px" height="34px" viewBox="0 0 68 34" enable-background="new 0 0 68 34" xml:space="preserve">
<circle fill="#999999" cx="17" cy="17" r="16"/>
<path fill="#FFFFFF" d="M20.854,7.685c0,0-1.79,0-2.981,0c-1.77,0-3.737,0.742-3.737,3.305c0.01,0.892,0,1.747,0,2.708H12.09v3.253
	h2.11v9.363h3.877v-9.426h2.559l0.233-3.2H18.01c0,0,0.009-1.424,0-1.837c0-1.012,1.055-0.954,1.118-0.954
	c0.504,0,1.478,0.001,1.729,0V7.685H20.854L20.854,7.685z"/>
<circle fill="#666666" cx="51" cy="17" r="16"/>
<path fill="#FFFFFF" d="M54.854,7.685c0,0-1.789,0-2.979,0c-1.771,0-3.737,0.742-3.737,3.305c0.01,0.892,0,1.747,0,2.708H46.09
	v3.253h2.11v9.363h3.878v-9.426h2.559l0.233-3.2h-2.86c0,0,0.01-1.424,0-1.837c0-1.012,1.055-0.954,1.118-0.954
	c0.504,0,1.478,0.001,1.729,0V7.685H54.854L54.854,7.685z"/>
</svg>
