<?xml version="1.0" encoding="utf-8"?>
<!-- Generator: Adobe Illustrator 16.0.0, SVG Export Plug-In . SVG Version: 6.00 Build 0)  -->
<!DOCTYPE svg PUBLIC "-//W3C//DTD SVG 1.1 Basic//EN" "http://www.w3.org/Graphics/SVG/1.1/DTD/svg11-basic.dtd">
<svg version="1.1" baseProfile="basic" id="Layer_1"
	 xmlns="http://www.w3.org/2000/svg" xmlns:xlink="http://www.w3.org/1999/xlink" x="0px" y="0px" width="68px" height="34px"
	 viewBox="0 0 68 34" xml:space="preserve">
<circle fill="#999999" cx="17" cy="17" r="17"/>
<g>
	<path fill="#FFFFFF" d="M7.887,12.258c0,0-2.369,2.479-1.958,6.511c0.412,4.033,2.966,7.361,11.481,7.361
		c8.513,0,10.655-4.444,10.706-8.101c0.051-3.654-1.596-5.284-2.369-5.839c0,0,0.006-2.623-0.242-4.01c0,0-1.311-0.155-4.141,1.466
		c0,0-3.863-0.377-9.011,0.047c0,0-2.162-1.445-4.341-1.823C8.013,7.87,7.652,10.145,7.887,12.258z"/>
	<path fill="#999999" d="M11.7,16.25h10.565c0,0,2.994-0.336,2.994,4.562c0.023,4.312-7.89,4.032-7.89,4.032
		s-8.668,0.345-8.673-4.44C8.687,16.083,11.7,16.25,11.7,16.25z"/>
	<g>
		<g>
			<path fill="#FFFFFF" d="M21.301,18.217c0.68,0,1.23,0.885,1.23,1.974c0,1.091-0.551,1.975-1.23,1.975
				c-0.678,0-1.229-0.884-1.229-1.975C20.07,19.102,20.623,18.217,21.301,18.217z"/>
			<path fill="#FFFFFF" d="M21.301,22.52c-0.889,0-1.584-1.023-1.584-2.329s0.695-2.329,1.584-2.329s1.586,1.023,1.586,2.329
				S22.189,22.52,21.301,22.52z M21.301,18.57c-0.414,0-0.875,0.665-0.875,1.62c0,0.956,0.461,1.62,0.875,1.62
				s0.877-0.664,0.877-1.62C22.178,19.235,21.715,18.57,21.301,18.57z"/>
		</g>
	</g>
	<g>
		<g>
			<path fill="#FFFFFF" d="M12.802,18.217c0.68,0,1.23,0.885,1.23,1.974c0,1.091-0.551,1.975-1.23,1.975
				c-0.678,0-1.229-0.884-1.229-1.975C11.571,19.102,12.124,18.217,12.802,18.217z"/>
			<path fill="#FFFFFF" d="M12.802,22.52c-0.889,0-1.584-1.023-1.584-2.329s0.695-2.329,1.584-2.329s1.585,1.023,1.585,2.329
				S13.69,22.52,12.802,22.52z M12.802,18.57c-0.414,0-0.875,0.665-0.875,1.62c0,0.956,0.461,1.62,0.875,1.62
				s0.877-0.664,0.877-1.62C13.679,19.235,13.216,18.57,12.802,18.57z"/>
		</g>
	</g>
</g>
<circle fill="#666666" cx="51" cy="17" r="17"/>
<g>
	<path fill="#FFFFFF" d="M41.888,12.258c0,0-2.369,2.479-1.958,6.511c0.412,4.033,2.967,7.361,11.482,7.361
		c8.512,0,10.654-4.444,10.705-8.101c0.051-3.654-1.596-5.284-2.369-5.839c0,0,0.006-2.623-0.242-4.01c0,0-1.311-0.155-4.141,1.466
		c0,0-3.862-0.377-9.01,0.047c0,0-2.162-1.445-4.342-1.823C42.014,7.87,41.652,10.145,41.888,12.258z"/>
	<path fill="#666666" d="M45.701,16.25h10.564c0,0,2.994-0.336,2.994,4.562c0.023,4.312-7.889,4.032-7.889,4.032
		s-8.668,0.345-8.674-4.44C42.688,16.083,45.701,16.25,45.701,16.25z"/>
	<g>
		<g>
			<path fill="#FFFFFF" d="M55.301,18.217c0.68,0,1.23,0.885,1.23,1.974c0,1.091-0.551,1.975-1.23,1.975
				c-0.678,0-1.229-0.884-1.229-1.975C54.07,19.102,54.623,18.217,55.301,18.217z"/>
			<path fill="#FFFFFF" d="M55.301,22.52c-0.889,0-1.584-1.023-1.584-2.329s0.695-2.329,1.584-2.329s1.586,1.023,1.586,2.329
				S56.189,22.52,55.301,22.52z M55.301,18.57c-0.414,0-0.875,0.665-0.875,1.62c0,0.956,0.461,1.62,0.875,1.62
				s0.877-0.664,0.877-1.62C56.178,19.235,55.715,18.57,55.301,18.57z"/>
		</g>
	</g>
	<g>
		<g>
			<path fill="#FFFFFF" d="M46.803,18.217c0.68,0,1.23,0.885,1.23,1.974c0,1.091-0.551,1.975-1.23,1.975
				c-0.678,0-1.23-0.884-1.23-1.975C45.572,19.102,46.125,18.217,46.803,18.217z"/>
			<path fill="#FFFFFF" d="M46.803,22.52c-0.889,0-1.584-1.023-1.584-2.329s0.695-2.329,1.584-2.329s1.584,1.023,1.584,2.329
				S47.691,22.52,46.803,22.52z M46.803,18.57c-0.414,0-0.875,0.665-0.875,1.62c0,0.956,0.461,1.62,0.875,1.62
				s0.877-0.664,0.877-1.62C47.68,19.235,47.217,18.57,46.803,18.57z"/>
		</g>
	</g>
</g>
</svg>
