<?xml version="1.0" encoding="utf-8"?>
<!-- Generator: Adobe Illustrator 16.0.0, SVG Export Plug-In . SVG Version: 6.00 Build 0)  -->
<!DOCTYPE svg PUBLIC "-//W3C//DTD SVG 1.1//EN" "http://www.w3.org/Graphics/SVG/1.1/DTD/svg11.dtd">
<svg version="1.1" id="Layer_1" xmlns="http://www.w3.org/2000/svg" xmlns:xlink="http://www.w3.org/1999/xlink" x="0px" y="0px"
	 width="68px" height="34px" viewBox="0 0 68 34" enable-background="new 0 0 68 34" xml:space="preserve">
<circle fill="#999999" cx="17" cy="17" r="16"/>
<g>
	<path fill="#FFFFFF" d="M8.423,12.537c0,0-2.23,2.333-1.843,6.128c0.387,3.796,2.791,6.928,10.806,6.928
		c8.012,0,10.028-4.183,10.076-7.624c0.048-3.439-1.502-4.973-2.23-5.496c0,0,0.006-2.469-0.228-3.773c0,0-1.234-0.146-3.897,1.379
		c0,0-3.635-0.355-8.48,0.044c0,0-2.035-1.36-4.085-1.715C8.542,8.407,8.202,10.548,8.423,12.537z"/>
	<path fill="#999999" d="M12.012,16.294h9.944c0,0,2.817-0.316,2.817,4.294c0.022,4.059-7.425,3.795-7.425,3.795
		s-8.158,0.325-8.164-4.179C9.176,16.137,12.012,16.294,12.012,16.294z"/>
	<g>
		<g>
			<path fill="#FFFFFF" d="M21.048,18.146c0.64,0,1.158,0.832,1.158,1.858c0,1.025-0.519,1.858-1.158,1.858
				c-0.638,0-1.157-0.833-1.157-1.858C19.889,18.978,20.41,18.146,21.048,18.146z"/>
			<path fill="#FFFFFF" d="M21.048,22.195c-0.836,0-1.491-0.963-1.491-2.191c0-1.23,0.654-2.193,1.491-2.193
				c0.837,0,1.493,0.963,1.493,2.193C22.541,21.232,21.884,22.195,21.048,22.195z M21.048,18.478c-0.389,0-0.824,0.625-0.824,1.524
				c0,0.9,0.435,1.525,0.824,1.525c0.39,0,0.826-0.625,0.826-1.525C21.874,19.103,21.438,18.478,21.048,18.478z"/>
		</g>
	</g>
	<g>
		<g>
			<path fill="#FFFFFF" d="M13.049,18.146c0.64,0,1.158,0.832,1.158,1.858c0,1.025-0.519,1.858-1.158,1.858
				c-0.638,0-1.156-0.833-1.156-1.858C11.89,18.978,12.411,18.146,13.049,18.146z"/>
			<path fill="#FFFFFF" d="M13.049,22.195c-0.836,0-1.491-0.963-1.491-2.191c0-1.23,0.654-2.193,1.491-2.193
				c0.837,0,1.492,0.963,1.492,2.193C14.541,21.232,13.885,22.195,13.049,22.195z M13.049,18.478c-0.389,0-0.824,0.625-0.824,1.524
				c0,0.9,0.435,1.525,0.824,1.525c0.39,0,0.826-0.625,0.826-1.525C13.875,19.103,13.438,18.478,13.049,18.478z"/>
		</g>
	</g>
</g>
<circle fill="#666666" cx="51" cy="17" r="16"/>
<g>
	<path fill="#FFFFFF" d="M42.425,12.537c0,0-2.229,2.333-1.844,6.128c0.388,3.796,2.792,6.928,10.807,6.928
		c8.011,0,10.027-4.183,10.075-7.624c0.048-3.439-1.502-4.973-2.229-5.496c0,0,0.006-2.469-0.228-3.773c0,0-1.233-0.146-3.897,1.379
		c0,0-3.635-0.355-8.479,0.044c0,0-2.035-1.36-4.087-1.715C42.542,8.407,42.202,10.548,42.425,12.537z"/>
	<path fill="#666666" d="M46.013,16.294h9.943c0,0,2.817-0.316,2.817,4.294c0.021,4.059-7.425,3.795-7.425,3.795
		s-8.158,0.325-8.165-4.179C43.177,16.137,46.013,16.294,46.013,16.294z"/>
	<g>
		<g>
			<path fill="#FFFFFF" d="M55.048,18.146c0.64,0,1.158,0.832,1.158,1.858c0,1.025-0.519,1.858-1.158,1.858
				c-0.638,0-1.156-0.833-1.156-1.858C53.89,18.978,54.41,18.146,55.048,18.146z"/>
			<path fill="#FFFFFF" d="M55.048,22.195c-0.837,0-1.491-0.963-1.491-2.191c0-1.23,0.654-2.193,1.491-2.193
				c0.836,0,1.492,0.963,1.492,2.193C56.54,21.232,55.884,22.195,55.048,22.195z M55.048,18.478c-0.39,0-0.823,0.625-0.823,1.524
				c0,0.9,0.434,1.525,0.823,1.525s0.825-0.625,0.825-1.525C55.873,19.103,55.438,18.478,55.048,18.478z"/>
		</g>
	</g>
	<g>
		<g>
			<path fill="#FFFFFF" d="M47.05,18.146c0.64,0,1.158,0.832,1.158,1.858c0,1.025-0.519,1.858-1.158,1.858
				c-0.638,0-1.157-0.833-1.157-1.858C45.892,18.978,46.412,18.146,47.05,18.146z"/>
			<path fill="#FFFFFF" d="M47.05,22.195c-0.837,0-1.491-0.963-1.491-2.191c0-1.23,0.654-2.193,1.491-2.193
				c0.836,0,1.49,0.963,1.49,2.193C48.54,21.232,47.886,22.195,47.05,22.195z M47.05,18.478c-0.39,0-0.823,0.625-0.823,1.524
				c0,0.9,0.434,1.525,0.823,1.525s0.825-0.625,0.825-1.525C47.875,19.103,47.439,18.478,47.05,18.478z"/>
		</g>
	</g>
</g>
</svg>
