<?xml version="1.0" encoding="utf-8"?>
<!-- Generator: Adobe Illustrator 16.0.0, SVG Export Plug-In . SVG Version: 6.00 Build 0)  -->
<!DOCTYPE svg PUBLIC "-//W3C//DTD SVG 1.1//EN" "http://www.w3.org/Graphics/SVG/1.1/DTD/svg11.dtd">
<svg version="1.1" id="Layer_1" xmlns="http://www.w3.org/2000/svg" xmlns:xlink="http://www.w3.org/1999/xlink" x="0px" y="0px"
	 width="68px" height="34px" viewBox="0 0 68 34" enable-background="new 0 0 68 34" xml:space="preserve">
<circle fill="#999999" cx="17" cy="17" r="16"/>
<path fill="#FFFFFF" d="M20.988,18.646c-0.398-0.171-0.795-0.267-1.19-0.285c-0.276-0.009-0.74-0.033-1.395-0.075
	c-0.657-0.044-1.172-0.069-1.549-0.077c-0.352-0.01-0.693-0.022-1.023-0.04c-0.331-0.016-0.62-0.06-0.868-0.128
	c-0.258-0.06-0.476-0.174-0.657-0.342c-0.18-0.167-0.27-0.408-0.27-0.726c0-0.308,0.105-0.553,0.322-0.732
	c0.214-0.18,0.419-0.304,0.617-0.374h1.556c1.199,0,2.253-0.386,3.157-1.157c0.905-0.771,1.356-1.714,1.356-2.829
	c0-0.428-0.077-0.866-0.229-1.313c-0.155-0.446-0.392-0.854-0.709-1.221V9.27h2.984V8.035h-4.424
	c-0.394-0.12-0.783-0.219-1.164-0.296c-0.381-0.078-0.767-0.116-1.151-0.116c-1.396,0-2.546,0.386-3.44,1.158
	c-0.896,0.771-1.344,1.758-1.344,2.958c0,0.798,0.226,1.499,0.682,2.103c0.453,0.605,1.092,1.1,1.916,1.486v0.193
	c-0.651,0.274-1.139,0.601-1.46,0.983c-0.322,0.38-0.483,0.799-0.483,1.254c0,0.359,0.069,0.662,0.207,0.906
	c0.138,0.244,0.317,0.456,0.54,0.638c0.196,0.154,0.433,0.29,0.708,0.405c0.273,0.115,0.54,0.212,0.796,0.289v0.181
	c-1.063,0.043-1.938,0.317-2.624,0.821c-0.686,0.507-1.029,1.197-1.029,2.072c0,1.078,0.476,1.9,1.429,2.463
	c0.95,0.563,2.388,0.843,4.308,0.843c1.174,0,2.161-0.113,2.959-0.336c0.799-0.222,1.483-0.535,2.058-0.938
	c0.541-0.395,0.944-0.861,1.21-1.396c0.265-0.536,0.4-1.107,0.4-1.718c0-0.608-0.099-1.118-0.297-1.53
	c-0.196-0.411-0.466-0.779-0.808-1.107C21.75,19.054,21.389,18.816,20.988,18.646z M18.003,14.085
	c-0.398,0.598-0.967,0.895-1.704,0.895c-0.659,0-1.198-0.3-1.615-0.9c-0.417-0.599-0.623-1.377-0.623-2.329
	c0-0.419,0.037-0.83,0.109-1.228c0.072-0.399,0.195-0.74,0.368-1.022c0.179-0.309,0.414-0.546,0.7-0.714
	c0.288-0.166,0.632-0.25,1.036-0.25c0.736,0,1.309,0.298,1.717,0.894c0.407,0.597,0.612,1.396,0.612,2.399
	C18.604,12.737,18.403,13.489,18.003,14.085z M19.985,24.671c-0.724,0.485-1.716,0.726-2.978,0.726
	c-0.728,0-1.346-0.069-1.852-0.213c-0.505-0.141-0.909-0.323-1.208-0.546c-0.317-0.231-0.54-0.485-0.669-0.759
	c-0.128-0.274-0.193-0.563-0.193-0.862c0-0.669,0.196-1.215,0.585-1.64c0.391-0.425,1.049-0.728,1.975-0.906
	c0.986,0,1.854,0.021,2.599,0.063c0.748,0.043,1.241,0.082,1.48,0.115c0.454,0.11,0.792,0.321,1.017,0.631
	c0.222,0.309,0.333,0.702,0.333,1.183C21.073,23.45,20.71,24.188,19.985,24.671z"/>
<circle fill="#666666" cx="52" cy="17" r="16"/>
<path fill="#FFFFFF" d="M56.238,18.748c-0.424-0.182-0.846-0.283-1.266-0.303c-0.293-0.01-0.785-0.035-1.481-0.08
	c-0.698-0.047-1.245-0.073-1.646-0.082c-0.375-0.01-0.736-0.023-1.088-0.042c-0.352-0.017-0.658-0.063-0.922-0.136
	c-0.273-0.063-0.506-0.186-0.697-0.363s-0.287-0.434-0.287-0.772c0-0.327,0.112-0.587,0.342-0.777
	c0.228-0.191,0.445-0.323,0.656-0.397h1.652c1.273,0,2.395-0.41,3.354-1.229c0.963-0.819,1.441-1.822,1.441-3.006
	c0-0.455-0.082-0.92-0.244-1.395c-0.164-0.474-0.416-0.907-0.753-1.298V8.786h3.171V7.475H53.77
	c-0.418-0.128-0.832-0.233-1.236-0.315c-0.405-0.083-0.814-0.123-1.223-0.123c-1.484,0-2.705,0.41-3.656,1.23
	c-0.952,0.82-1.428,1.868-1.428,3.142c0,0.849,0.239,1.593,0.725,2.235c0.48,0.643,1.16,1.169,2.035,1.579v0.205
	c-0.691,0.291-1.209,0.639-1.551,1.045c-0.343,0.404-0.514,0.849-0.514,1.332c0,0.383,0.073,0.704,0.221,0.963
	c0.146,0.26,0.336,0.485,0.573,0.678c0.208,0.164,0.46,0.309,0.752,0.431c0.291,0.123,0.574,0.226,0.847,0.308v0.191
	c-1.129,0.046-2.06,0.338-2.787,0.873c-0.729,0.538-1.094,1.271-1.094,2.202c0,1.146,0.506,2.019,1.518,2.616
	c1.009,0.599,2.537,0.896,4.576,0.896c1.248,0,2.297-0.12,3.145-0.356c0.85-0.236,1.576-0.569,2.186-0.996
	c0.576-0.42,1.004-0.916,1.287-1.483c0.281-0.569,0.424-1.177,0.424-1.825c0-0.646-0.104-1.188-0.315-1.626
	c-0.208-0.437-0.495-0.827-0.858-1.176C57.047,19.182,56.663,18.93,56.238,18.748z M53.066,13.903
	c-0.424,0.635-1.027,0.95-1.811,0.95c-0.699,0-1.273-0.319-1.716-0.956c-0.442-0.637-0.662-1.463-0.662-2.474
	c0-0.446,0.039-0.882,0.116-1.305c0.076-0.424,0.207-0.786,0.391-1.086c0.19-0.329,0.439-0.581,0.744-0.759
	c0.305-0.177,0.671-0.266,1.1-0.266c0.783,0,1.392,0.317,1.824,0.949c0.434,0.634,0.65,1.483,0.65,2.549
	C53.704,12.47,53.491,13.27,53.066,13.903z M55.172,25.15c-0.77,0.516-1.824,0.771-3.164,0.771c-0.773,0-1.43-0.073-1.968-0.226
	c-0.537-0.149-0.966-0.344-1.284-0.58c-0.337-0.246-0.574-0.516-0.711-0.807s-0.205-0.598-0.205-0.916
	c0-0.711,0.208-1.291,0.622-1.742c0.415-0.451,1.114-0.772,2.099-0.963c1.047,0,1.969,0.021,2.76,0.067
	c0.795,0.046,1.318,0.087,1.574,0.123c0.481,0.117,0.842,0.341,1.08,0.67c0.235,0.328,0.354,0.746,0.354,1.257
	C56.327,23.854,55.941,24.637,55.172,25.15z"/>
</svg>
