<?xml version="1.0" encoding="utf-8"?>
<!-- Generator: Adobe Illustrator 16.0.0, SVG Export Plug-In . SVG Version: 6.00 Build 0)  -->
<!DOCTYPE svg PUBLIC "-//W3C//DTD SVG 1.1 Basic//EN" "http://www.w3.org/Graphics/SVG/1.1/DTD/svg11-basic.dtd">
<svg version="1.1" baseProfile="basic" id="Layer_1"
	 xmlns="http://www.w3.org/2000/svg" xmlns:xlink="http://www.w3.org/1999/xlink" x="0px" y="0px" width="68px" height="34px"
	 viewBox="0 0 68 34" xml:space="preserve">
<circle fill="#999999" cx="17" cy="17" r="17"/>
<path fill="#FFFFFF" d="M21.238,18.748c-0.424-0.182-0.845-0.283-1.265-0.302c-0.293-0.01-0.786-0.036-1.482-0.081
	c-0.698-0.047-1.245-0.073-1.646-0.082c-0.374-0.009-0.736-0.023-1.087-0.042c-0.352-0.017-0.659-0.063-0.922-0.136
	c-0.274-0.063-0.506-0.185-0.698-0.363c-0.191-0.177-0.286-0.434-0.286-0.772c0-0.327,0.112-0.587,0.342-0.777
	c0.227-0.191,0.445-0.323,0.655-0.397h1.653c1.274,0,2.394-0.41,3.354-1.229c0.962-0.819,1.441-1.822,1.441-3.006
	c0-0.455-0.082-0.92-0.244-1.395c-0.165-0.474-0.416-0.907-0.753-1.298V8.786h3.17V7.475H18.77
	c-0.418-0.128-0.832-0.233-1.237-0.315c-0.405-0.083-0.814-0.123-1.223-0.123c-1.484,0-2.705,0.41-3.655,1.23
	c-0.953,0.82-1.429,1.868-1.429,3.142c0,0.849,0.24,1.593,0.725,2.235c0.481,0.643,1.16,1.169,2.036,1.579v0.205
	c-0.692,0.291-1.21,0.639-1.552,1.045c-0.342,0.404-0.513,0.849-0.513,1.332c0,0.382,0.073,0.704,0.22,0.963
	c0.146,0.26,0.337,0.485,0.574,0.677c0.208,0.164,0.46,0.309,0.752,0.431c0.291,0.123,0.574,0.226,0.846,0.308v0.191
	c-1.129,0.046-2.059,0.338-2.787,0.873c-0.729,0.538-1.094,1.271-1.094,2.202c0,1.146,0.506,2.019,1.518,2.616
	c1.009,0.599,2.537,0.896,4.577,0.896c1.247,0,2.296-0.12,3.144-0.356c0.849-0.237,1.576-0.57,2.186-0.997
	c0.575-0.42,1.003-0.915,1.286-1.483c0.282-0.57,0.425-1.177,0.425-1.825c0-0.647-0.105-1.188-0.316-1.626
	c-0.208-0.437-0.495-0.828-0.858-1.176C22.047,19.182,21.663,18.93,21.238,18.748z M18.066,13.903
	c-0.423,0.635-1.027,0.95-1.81,0.95c-0.7,0-1.273-0.319-1.716-0.956s-0.662-1.463-0.662-2.474c0-0.446,0.039-0.882,0.116-1.305
	c0.077-0.424,0.207-0.786,0.391-1.086c0.19-0.329,0.439-0.581,0.744-0.759c0.305-0.177,0.671-0.266,1.1-0.266
	c0.782,0,1.391,0.317,1.824,0.949c0.433,0.634,0.65,1.483,0.65,2.549C18.704,12.47,18.491,13.27,18.066,13.903z M20.172,25.15
	c-0.769,0.516-1.824,0.771-3.164,0.771c-0.773,0-1.43-0.074-1.968-0.225c-0.537-0.15-0.966-0.345-1.284-0.581
	c-0.337-0.246-0.574-0.516-0.711-0.807s-0.205-0.597-0.205-0.915c0-0.711,0.208-1.291,0.622-1.743
	c0.415-0.451,1.114-0.772,2.098-0.963c1.048,0,1.97,0.022,2.761,0.068c0.794,0.046,1.318,0.087,1.573,0.123
	c0.482,0.117,0.842,0.341,1.08,0.67c0.236,0.328,0.354,0.746,0.354,1.257C21.327,23.854,20.942,24.636,20.172,25.15z"/>
<circle fill="#666666" cx="51" cy="17" r="17"/>
<path fill="#FFFFFF" d="M55.238,18.748c-0.424-0.182-0.845-0.283-1.265-0.302c-0.293-0.01-0.786-0.036-1.482-0.081
	c-0.698-0.047-1.245-0.073-1.646-0.082c-0.374-0.009-0.736-0.023-1.087-0.042c-0.352-0.017-0.659-0.063-0.922-0.136
	c-0.274-0.063-0.506-0.185-0.698-0.363c-0.191-0.177-0.286-0.434-0.286-0.772c0-0.327,0.112-0.587,0.342-0.777
	c0.227-0.191,0.445-0.323,0.655-0.397h1.653c1.274,0,2.394-0.41,3.354-1.229c0.962-0.819,1.441-1.822,1.441-3.006
	c0-0.455-0.082-0.92-0.244-1.395c-0.165-0.474-0.416-0.907-0.753-1.298V8.786h3.17V7.475H52.77
	c-0.418-0.128-0.832-0.233-1.237-0.315c-0.405-0.083-0.814-0.123-1.223-0.123c-1.484,0-2.705,0.41-3.655,1.23
	c-0.953,0.82-1.429,1.868-1.429,3.142c0,0.849,0.24,1.593,0.725,2.235c0.481,0.643,1.16,1.169,2.036,1.579v0.205
	c-0.692,0.291-1.21,0.639-1.552,1.045c-0.342,0.404-0.513,0.849-0.513,1.332c0,0.382,0.073,0.704,0.22,0.963
	c0.146,0.26,0.337,0.485,0.574,0.677c0.208,0.164,0.46,0.309,0.752,0.431c0.291,0.123,0.574,0.226,0.846,0.308v0.191
	c-1.129,0.046-2.059,0.338-2.787,0.873c-0.729,0.538-1.094,1.271-1.094,2.202c0,1.146,0.506,2.019,1.518,2.616
	c1.009,0.599,2.537,0.896,4.577,0.896c1.247,0,2.296-0.12,3.144-0.356c0.849-0.237,1.576-0.57,2.186-0.997
	c0.575-0.42,1.003-0.915,1.286-1.483c0.282-0.57,0.425-1.177,0.425-1.825c0-0.647-0.105-1.188-0.316-1.626
	c-0.208-0.437-0.495-0.828-0.858-1.176C56.047,19.182,55.663,18.93,55.238,18.748z M52.066,13.903
	c-0.423,0.635-1.027,0.95-1.81,0.95c-0.7,0-1.273-0.319-1.716-0.956s-0.662-1.463-0.662-2.474c0-0.446,0.039-0.882,0.116-1.305
	c0.077-0.424,0.207-0.786,0.391-1.086c0.19-0.329,0.439-0.581,0.744-0.759c0.305-0.177,0.671-0.266,1.1-0.266
	c0.782,0,1.391,0.317,1.824,0.949c0.433,0.634,0.65,1.483,0.65,2.549C52.704,12.47,52.491,13.27,52.066,13.903z M54.172,25.15
	c-0.769,0.516-1.824,0.771-3.164,0.771c-0.773,0-1.43-0.074-1.968-0.225c-0.537-0.15-0.966-0.345-1.284-0.581
	c-0.337-0.246-0.574-0.516-0.711-0.807s-0.205-0.597-0.205-0.915c0-0.711,0.208-1.291,0.622-1.743
	c0.415-0.451,1.114-0.772,2.098-0.963c1.048,0,1.97,0.022,2.761,0.068c0.794,0.046,1.318,0.087,1.573,0.123
	c0.482,0.117,0.842,0.341,1.08,0.67c0.236,0.328,0.354,0.746,0.354,1.257C55.327,23.854,54.942,24.636,54.172,25.15z"/>
</svg>
