<?xml version="1.0" encoding="utf-8"?>
<!-- Generator: Adobe Illustrator 16.0.0, SVG Export Plug-In . SVG Version: 6.00 Build 0)  -->
<!DOCTYPE svg PUBLIC "-//W3C//DTD SVG 1.1 Basic//EN" "http://www.w3.org/Graphics/SVG/1.1/DTD/svg11-basic.dtd">
<svg version="1.1" baseProfile="basic" id="Layer_1"
	 xmlns="http://www.w3.org/2000/svg" xmlns:xlink="http://www.w3.org/1999/xlink" x="0px" y="0px" width="68px" height="34px"
	 viewBox="0 0 68 34" xml:space="preserve">
<g>
	<circle fill="#999999" cx="17" cy="17" r="17"/>
	<g>
		<g>
			<path fill="#FFFFFF" d="M10.737,8.109c-1.139,0-1.882,0.767-1.859,1.79c-0.023,0.976,0.721,1.767,1.837,1.767
				c1.163,0,1.906-0.791,1.906-1.767C12.597,8.876,11.876,8.109,10.737,8.109z M8.971,25.055h3.533V12.979H8.971V25.055z
				 M22.057,13.149c-1.13,0-2.283-0.233-3.511,1.672h-0.069l-0.063-1.841h-3.128c0.046,1,0.052,2.492,0.052,3.91v8.167h3.533v-6.98
				c0-0.326,0.046-0.65,0.139-0.884c0.232-0.651,0.814-1.326,1.79-1.326c1.278,0,1.79,1,1.79,2.464v6.726h3.533v-7.168
				C26.125,14.541,24.381,13.149,22.057,13.149z"/>
		</g>
	</g>
</g>
<g>
	<circle fill="#666666" cx="51" cy="17" r="17"/>
	<g>
		<g>
			<path fill="#FFFFFF" d="M44.736,8.109c-1.139,0-1.882,0.767-1.859,1.79c-0.022,0.976,0.722,1.767,1.838,1.767
				c1.162,0,1.906-0.791,1.906-1.767C46.598,8.876,45.876,8.109,44.736,8.109z M42.971,25.055h3.533V12.979h-3.533V25.055z
				 M56.057,13.149c-1.13,0-2.283-0.233-3.511,1.672h-0.069l-0.063-1.841h-3.128c0.046,1,0.052,2.492,0.052,3.91v8.167h3.533v-6.98
				c0-0.326,0.046-0.65,0.139-0.884c0.232-0.651,0.814-1.326,1.79-1.326c1.278,0,1.79,1,1.79,2.464v6.726h3.533v-7.168
				C60.125,14.541,58.381,13.149,56.057,13.149z"/>
		</g>
	</g>
</g>
</svg>
