<?xml version="1.0" encoding="utf-8"?>
<!-- Generator: Adobe Illustrator 16.0.0, SVG Export Plug-In . SVG Version: 6.00 Build 0)  -->
<!DOCTYPE svg PUBLIC "-//W3C//DTD SVG 1.1//EN" "http://www.w3.org/Graphics/SVG/1.1/DTD/svg11.dtd">
<svg version="1.1" id="Layer_1" xmlns="http://www.w3.org/2000/svg" xmlns:xlink="http://www.w3.org/1999/xlink" x="0px" y="0px"
	 width="68px" height="34px" viewBox="0 0 68 34" enable-background="new 0 0 68 34" xml:space="preserve">
<g>
	<circle fill="#999999" cx="17" cy="17" r="16"/>
	<g>
		<g>
			<path fill="#FFFFFF" d="M11.105,8.632c-1.072,0-1.771,0.722-1.75,1.685c-0.021,0.919,0.679,1.664,1.729,1.664
				c1.095,0,1.794-0.745,1.794-1.664C12.856,9.354,12.177,8.632,11.105,8.632z M9.443,24.581h3.325V13.215H9.443V24.581z
				 M21.76,13.375c-1.064,0-2.149-0.219-3.305,1.574H18.39l-0.059-1.733h-2.944c0.043,0.941,0.049,2.346,0.049,3.68v7.687h3.326
				v-6.569c0-0.307,0.043-0.611,0.13-0.832c0.219-0.613,0.767-1.248,1.685-1.248c1.203,0,1.685,0.941,1.685,2.319v6.33h3.325v-6.747
				C25.588,14.686,23.947,13.375,21.76,13.375z"/>
		</g>
	</g>
</g>
<g>
	<circle fill="#666666" cx="51" cy="17" r="16"/>
	<g>
		<g>
			<path fill="#FFFFFF" d="M45.104,8.632c-1.071,0-1.771,0.722-1.75,1.685c-0.02,0.919,0.681,1.664,1.73,1.664
				c1.094,0,1.794-0.745,1.794-1.664C46.856,9.354,46.178,8.632,45.104,8.632z M43.443,24.581h3.325V13.215h-3.325V24.581z
				 M55.759,13.375c-1.063,0-2.148-0.219-3.304,1.574H52.39l-0.059-1.733h-2.944c0.043,0.941,0.049,2.346,0.049,3.68v7.687h3.325
				v-6.569c0-0.307,0.044-0.611,0.131-0.832c0.219-0.613,0.767-1.248,1.685-1.248c1.203,0,1.685,0.941,1.685,2.319v6.33h3.325
				v-6.747C59.588,14.686,57.946,13.375,55.759,13.375z"/>
		</g>
	</g>
</g>
</svg>
