<?xml version="1.0" encoding="utf-8"?>
<!-- Generator: Adobe Illustrator 16.0.0, SVG Export Plug-In . SVG Version: 6.00 Build 0)  -->
<!DOCTYPE svg PUBLIC "-//W3C//DTD SVG 1.1 Basic//EN" "http://www.w3.org/Graphics/SVG/1.1/DTD/svg11-basic.dtd">
<svg version="1.1" baseProfile="basic" id="Layer_1"
	 xmlns="http://www.w3.org/2000/svg" xmlns:xlink="http://www.w3.org/1999/xlink" x="0px" y="0px" width="22px" height="22px"
	 viewBox="0 0 22 22" xml:space="preserve">
<g>
	<path fill="#005CA7" d="M9.341,14.561c1.091,0.467,2.726,0.172,4.055-1.156c1.328-1.33,1.623-2.964,1.156-4.057l1.146-1.146
		c1.201,1.851,0.557,4.53-1.209,6.296c-1.768,1.766-4.445,2.41-6.296,1.209L9.341,14.561z M8.596,8.605
		c-1.328,1.329-1.621,2.963-1.156,4.057l-1.146,1.146c-1.201-1.852-0.557-4.53,1.209-6.298c1.768-1.766,4.445-2.41,6.296-1.208
		l-1.146,1.146C11.561,6.981,9.926,7.275,8.596,8.605z"/>
	<polygon fill="#005CA7" points="10.072,13.021 4.652,18.441 4.652,16.254 8.979,11.93 	"/>
	<polygon fill="#005CA7" points="11.922,8.986 17.347,3.559 17.347,5.746 13.015,10.079 	"/>
</g>
</svg>
