<svg version="1.1"
	 id="svg2" inkscape:version="0.47 r22583" inkscape:output_extension="org.inkscape.output.svg.inkscape" xmlns:svg="http://www.w3.org/2000/svg" xmlns:rdf="http://www.w3.org/1999/02/22-rdf-syntax-ns#" xmlns:inkscape="http://www.inkscape.org/namespaces/inkscape" xmlns:dc="http://purl.org/dc/elements/1.1/" xmlns:cc="http://creativecommons.org/ns#"
	 xmlns="http://www.w3.org/2000/svg" xmlns:xlink="http://www.w3.org/1999/xlink" x="0px" y="0px" width="130px" height="130px"
	 viewBox="0 0 130 130" enable-background="new 0 0 130 130" xml:space="preserve">
<g transform="translate(-373.642,-318.344)" inkscape:groupmode="layer" inkscape:label="Layer 1">
	<path id="path5270" fill="#FFFFFF" d="M409.964,429.777c0,9.739-8.131,17.635-18.161,17.635c-10.03,0-18.161-7.896-18.161-17.635
		c0-9.74,8.132-17.635,18.161-17.635C401.832,412.142,409.964,420.036,409.964,429.777z"/>
	<path id="path5805" fill="#FFFFFF" d="M374.168,387.401l-0.062-25.646c54.815,2.859,85.237,42.081,85.984,86.356h-25.684
		C433.981,409.194,407.52,388.817,374.168,387.401z"/>
	<path id="path5807" fill="#FFFFFF" d="M374.479,344.633l-0.745-26.056c84.229,3.91,129.338,65.034,129.906,129.535l-26.428-0.372
		C478.37,406.481,447.848,345.857,374.479,344.633z"/>
</g>
</svg>