<?xml version="1.0" encoding="utf-8"?>
<!-- Generator: Adobe Illustrator 16.0.0, SVG Export Plug-In . SVG Version: 6.00 Build 0)  -->
<!DOCTYPE svg PUBLIC "-//W3C//DTD SVG 1.1 Basic//EN" "http://www.w3.org/Graphics/SVG/1.1/DTD/svg11-basic.dtd">
<svg version="1.1" baseProfile="basic" id="Layer_1"
	 xmlns="http://www.w3.org/2000/svg" xmlns:xlink="http://www.w3.org/1999/xlink" x="0px" y="0px" width="68px" height="34px"
	 viewBox="0 0 68 34" xml:space="preserve">
<circle fill="#999999" cx="17" cy="17" r="17"/>
<path fill="#FFFFFF" d="M26.149,11.827c-0.674,0.299-1.396,0.5-2.156,0.591c0.775-0.465,1.37-1.201,1.65-2.077
	c-0.725,0.431-1.528,0.743-2.385,0.912c-0.685-0.73-1.66-1.186-2.738-1.186c-2.073,0-3.754,1.681-3.754,3.754
	c0,0.294,0.033,0.581,0.097,0.856c-3.12-0.157-5.886-1.651-7.737-3.922c-0.324,0.554-0.509,1.199-0.509,1.887
	c0,1.302,0.663,2.451,1.67,3.124c-0.615-0.019-1.194-0.188-1.701-0.469c0,0.016,0,0.031,0,0.047c0,1.819,1.294,3.336,3.011,3.682
	c-0.315,0.087-0.646,0.131-0.989,0.131c-0.242,0-0.477-0.022-0.707-0.066c0.478,1.491,1.864,2.577,3.506,2.606
	c-1.284,1.008-2.903,1.609-4.662,1.609c-0.303,0-0.602-0.019-0.896-0.055c1.662,1.065,3.635,1.688,5.754,1.688
	c6.904,0,10.68-5.721,10.68-10.681c0-0.163-0.004-0.325-0.012-0.486C25.009,13.241,25.646,12.58,26.149,11.827z"/>
<circle fill="#666666" cx="51" cy="17" r="17"/>
<path fill="#FFFFFF" d="M60.149,11.827c-0.674,0.299-1.396,0.5-2.156,0.591c0.775-0.465,1.37-1.201,1.65-2.077
	c-0.725,0.431-1.528,0.743-2.385,0.912c-0.685-0.73-1.66-1.186-2.738-1.186c-2.073,0-3.754,1.681-3.754,3.754
	c0,0.294,0.032,0.581,0.097,0.856c-3.12-0.157-5.887-1.651-7.737-3.922c-0.323,0.554-0.509,1.199-0.509,1.887
	c0,1.302,0.663,2.451,1.67,3.124c-0.615-0.019-1.193-0.188-1.701-0.469c0,0.016,0,0.031,0,0.047c0,1.819,1.295,3.336,3.012,3.682
	c-0.315,0.087-0.646,0.131-0.988,0.131c-0.242,0-0.478-0.022-0.707-0.066c0.478,1.491,1.863,2.577,3.506,2.606
	c-1.284,1.008-2.903,1.609-4.662,1.609c-0.303,0-0.602-0.019-0.896-0.055c1.661,1.065,3.635,1.688,5.755,1.688
	c6.903,0,10.68-5.721,10.68-10.681c0-0.163-0.004-0.325-0.012-0.486C59.009,13.241,59.646,12.58,60.149,11.827z"/>
</svg>
