<?xml version="1.0" encoding="utf-8"?>
<!-- Generator: Adobe Illustrator 16.0.0, SVG Export Plug-In . SVG Version: 6.00 Build 0)  -->
<!DOCTYPE svg PUBLIC "-//W3C//DTD SVG 1.1//EN" "http://www.w3.org/Graphics/SVG/1.1/DTD/svg11.dtd">
<svg version="1.1" id="Layer_1" xmlns="http://www.w3.org/2000/svg" xmlns:xlink="http://www.w3.org/1999/xlink" x="0px" y="0px"
	 width="68px" height="34px" viewBox="0 0 68 34" enable-background="new 0 0 68 34" xml:space="preserve">
<circle fill="#999999" cx="17" cy="17" r="16"/>
<path fill="#FFFFFF" d="M25.611,12.131c-0.634,0.281-1.314,0.471-2.029,0.556c0.729-0.438,1.289-1.13,1.553-1.955
	c-0.683,0.406-1.438,0.7-2.245,0.858c-0.644-0.687-1.562-1.116-2.577-1.116c-1.951,0-3.533,1.583-3.533,3.533
	c0,0.277,0.031,0.547,0.091,0.806c-2.937-0.148-5.54-1.554-7.282-3.692c-0.305,0.522-0.479,1.129-0.479,1.776
	c0,1.225,0.624,2.307,1.572,2.94c-0.579-0.018-1.124-0.177-1.601-0.442c0,0.015,0,0.029,0,0.044c0,1.712,1.218,3.14,2.834,3.465
	c-0.296,0.083-0.608,0.123-0.931,0.123c-0.228,0-0.449-0.021-0.666-0.062c0.45,1.403,1.755,2.426,3.3,2.453
	c-1.208,0.948-2.732,1.515-4.388,1.515c-0.285,0-0.566-0.019-0.843-0.053c1.564,1.003,3.421,1.59,5.416,1.59
	c6.498,0,10.052-5.385,10.052-10.054c0-0.153-0.004-0.306-0.012-0.457C24.538,13.462,25.137,12.84,25.611,12.131z"/>
<circle fill="#666666" cx="51" cy="17" r="16"/>
<path fill="#FFFFFF" d="M59.61,12.131c-0.634,0.281-1.313,0.471-2.028,0.556c0.729-0.438,1.289-1.13,1.552-1.955
	c-0.682,0.406-1.438,0.7-2.244,0.858c-0.645-0.687-1.563-1.116-2.577-1.116c-1.95,0-3.533,1.583-3.533,3.533
	c0,0.277,0.03,0.547,0.092,0.806c-2.937-0.148-5.54-1.554-7.282-3.692c-0.304,0.522-0.479,1.129-0.479,1.776
	c0,1.225,0.623,2.307,1.571,2.94c-0.579-0.018-1.123-0.177-1.601-0.442c0,0.015,0,0.029,0,0.044c0,1.712,1.219,3.14,2.834,3.465
	c-0.296,0.083-0.607,0.123-0.93,0.123c-0.228,0-0.449-0.021-0.665-0.062c0.45,1.403,1.753,2.426,3.3,2.453
	c-1.208,0.948-2.732,1.515-4.388,1.515c-0.286,0-0.567-0.019-0.843-0.053c1.563,1.003,3.421,1.59,5.415,1.59
	c6.498,0,10.053-5.385,10.053-10.054c0-0.153-0.004-0.306-0.012-0.457C58.538,13.462,59.138,12.84,59.61,12.131z"/>
</svg>
