<?xml version="1.0" encoding="utf-8"?>
<!-- Generator: Adobe Illustrator 16.0.0, SVG Export Plug-In . SVG Version: 6.00 Build 0)  -->
<!DOCTYPE svg PUBLIC "-//W3C//DTD SVG 1.1//EN" "http://www.w3.org/Graphics/SVG/1.1/DTD/svg11.dtd">
<svg version="1.1" id="Layer_1" xmlns="http://www.w3.org/2000/svg" xmlns:xlink="http://www.w3.org/1999/xlink" x="0px" y="0px"
	 width="181px" height="46px" viewBox="0 0 181 46" enable-background="new 0 0 181 46" xml:space="preserve">
<g>
	<path fill="#005CA6" d="M72.719,43.287c-0.834,0-1.521-0.424-1.911-1.098V46h-1.341v-8.484h1.341v0.946
		c0.391-0.669,1.063-1.108,1.896-1.108c1.686,0,2.731,1.404,2.731,2.957C75.435,41.865,74.373,43.287,72.719,43.287z M72.441,38.514
		c-0.962,0-1.616,0.816-1.634,1.766c0,0.979,0.636,1.848,1.634,1.848c0.961,0,1.635-0.816,1.635-1.797
		C74.076,39.314,73.404,38.514,72.441,38.514z"/>
	<path fill="#005CA6" d="M79.131,37.336c1.865,0,2.813,1.407,2.813,2.977c0,0.084,0,0.246-0.018,0.328h-4.316
		c0,0.98,0.805,1.633,1.799,1.633c0.704,0,1.275-0.308,1.751-0.701l0.685,0.718c-0.555,0.476-1.258,0.998-2.6,0.998
		c-1.979,0-3.021-1.422-3.021-2.978C76.221,38.758,77.266,37.336,79.131,37.336z M77.592,39.837h3.076
		c-0.065-0.815-0.703-1.536-1.537-1.536C78.281,38.303,77.66,39.021,77.592,39.837z"/>
	<path fill="#005CA6" d="M84.264,43.061h-1.36v-5.545h1.36v0.752c0.279-0.521,0.898-0.932,1.65-0.932c1.651,0,2.32,1.064,2.32,2.698
		v3.024h-1.341v-3.024c0-1.127-0.503-1.603-1.308-1.603c-0.721,0-1.31,0.476-1.324,1.553v3.076H84.264z"/>
	<path fill="#005CA6" d="M89.838,39.741v-1.114h-0.787v-1.111h0.787v-1.877h1.356v1.877h1.179v1.111h-1.179v1.078
		c0,1.768,0.081,2.34,0.722,2.34c0.112,0,0.262-0.035,0.391-0.049l0.164,1.029c-0.393,0.131-0.688,0.197-0.949,0.197
		C89.838,43.223,89.838,42.029,89.838,39.741z"/>
	<path fill="#005CA6" d="M95.9,37.336c0.85,0,1.503,0.441,1.912,1.128v-0.948h1.324v5.545h-1.324v-0.883
		c-0.395,0.67-1.063,1.109-1.896,1.109c-1.684,0-2.732-1.405-2.732-2.958C93.187,38.773,94.246,37.336,95.9,37.336z M96.178,42.111
		c0.963,0,1.619-0.836,1.619-1.801c0-0.961-0.656-1.814-1.619-1.814c-0.965,0-1.637,0.836-1.637,1.814
		C94.543,41.324,95.213,42.111,96.178,42.111z"/>
	<path fill="#005CA6" d="M101.676,43.061h-1.34V31.286h1.34v6.981c0.297-0.523,0.899-0.934,1.649-0.934
		c1.673,0,2.339,1.064,2.339,2.699v3.025h-1.354v-3.025c0-1.129-0.508-1.604-1.295-1.604c-0.735,0-1.342,0.475-1.342,1.553v3.078
		H101.676z"/>
	<path fill="#005CA6" d="M106.481,40.279c0-1.555,1.015-2.944,2.978-2.944c1.979,0,2.992,1.374,2.992,2.944
		s-1.015,2.959-2.992,2.959C107.496,43.239,106.481,41.833,106.481,40.279z M111.112,40.279c0-1.18-0.724-1.963-1.653-1.963
		c-0.912,0-1.634,0.783-1.634,1.963c0,1.211,0.701,1.994,1.634,1.994C110.391,42.273,111.112,41.49,111.112,40.279z"/>
	<path fill="#005CA6" d="M58.75,43.391l2.744-7.33l0.424-0.082l2.937,7.235l-0.668,0.175l-1.087-2.517l-2.723-0.003l-0.961,2.438
		L58.75,43.391z M61.762,37.311c-0.058,0.168-0.113,0.328-0.175,0.475l-0.932,2.387h2.179l-0.902-2.396
		C61.879,37.646,61.823,37.498,61.762,37.311z"/>
	<path fill="#005CA6" d="M117.52,38.641c0.445-0.486,1.049-0.726,1.799-0.726c0.441,0,0.866,0.075,1.273,0.229
		c0.06,0.022,0.094,0.092,0.074,0.157l-0.123,0.399c-0.021,0.066-0.095,0.104-0.16,0.081c-0.42-0.14-0.776-0.207-1.074-0.207
		c-0.576,0-0.996,0.181-1.279,0.521c-0.283,0.342-0.438,0.844-0.438,1.529c0,0.646,0.148,1.141,0.438,1.488
		c0.283,0.344,0.684,0.518,1.213,0.518c0.434,0,0.834-0.076,1.2-0.229c0.088-0.037,0.175,0.021,0.175,0.115v0.418
		c0,0.043-0.031,0.094-0.07,0.114c-0.338,0.167-0.773,0.243-1.295,0.243c-0.736,0-1.326-0.232-1.754-0.708
		c-0.429-0.478-0.631-1.13-0.631-1.951C116.867,39.798,117.08,39.127,117.52,38.641z"/>
	<path fill="#005CA6" d="M122.519,42.961c-0.351-0.227-0.62-0.544-0.804-0.955c-0.187-0.408-0.274-0.88-0.274-1.406
		c0-0.826,0.198-1.486,0.618-1.965c0.418-0.482,0.99-0.72,1.703-0.72c0.709,0,1.279,0.237,1.691,0.729
		c0.412,0.484,0.608,1.141,0.608,1.955c0,0.824-0.198,1.487-0.616,1.973c-0.418,0.484-0.992,0.722-1.712,0.724
		C123.28,43.296,122.875,43.184,122.519,42.961z M124.916,42.111c0.276-0.353,0.424-0.851,0.424-1.512
		c0-0.664-0.148-1.162-0.428-1.506c-0.273-0.34-0.656-0.519-1.172-0.519c-0.512,0-0.893,0.175-1.16,0.519
		c-0.27,0.342-0.414,0.838-0.414,1.506c0.002,0.664,0.146,1.159,0.418,1.512c0.271,0.346,0.655,0.521,1.168,0.521
		C124.268,42.63,124.645,42.455,124.916,42.111z"/>
	<path fill="#005CA6" d="M132.457,37.915c0.562,0,1.002,0.151,1.305,0.471c0.304,0.323,0.441,0.818,0.441,1.462v3.23l-0.563,0.124
		l-0.139-3.363c0-0.472-0.09-0.784-0.252-0.974c-0.156-0.186-0.4-0.285-0.766-0.285c-0.484,0-0.814,0.132-1.027,0.372
		c-0.214,0.248-0.33,0.647-0.33,1.229v2.897l-0.578,0.124l-0.135-3.5c0-0.773-0.336-1.123-1.02-1.127
		c-0.494,0-0.827,0.146-1.031,0.408c-0.211,0.267-0.328,0.714-0.328,1.365v2.729l-0.564,0.124l-0.139-5.063l0.487-0.129l0.177,0.512
		c0.131-0.157,0.291-0.287,0.479-0.387c0.272-0.147,0.567-0.22,0.89-0.22c0.725,0,1.251,0.246,1.526,0.759
		c0.149-0.21,0.344-0.386,0.577-0.519C131.762,37.995,132.09,37.915,132.457,37.915z"/>
	<path fill="#005CA6" d="M139.573,38.62c0.375,0.469,0.554,1.137,0.556,1.989c0,0.828-0.189,1.492-0.588,1.974
		c-0.392,0.478-0.929,0.713-1.599,0.713c-0.653,0-1.179-0.194-1.558-0.606c0.012,0.227,0.019,0.476,0.019,0.742v1.881l-0.565,0.127
		c-0.053,0.006-0.096-0.033-0.096-0.082l-0.041-7.219l0.497-0.128c0.043-0.004,0.089,0.026,0.095,0.069l0.086,0.471
		c0.367-0.427,0.902-0.636,1.57-0.636C138.644,37.915,139.194,38.145,139.573,38.62z M137.949,38.577
		c-0.553,0-0.936,0.153-1.169,0.435c-0.243,0.28-0.377,0.754-0.377,1.463v0.145c0,0.767,0.13,1.281,0.36,1.574
		c0.226,0.291,0.604,0.449,1.17,0.449c0.467,0,0.818-0.172,1.068-0.514c0.256-0.345,0.393-0.842,0.393-1.5
		C139.396,39.204,138.896,38.577,137.949,38.577z"/>
	<path fill="#005CA6" d="M142.674,43.296c-0.508,0-0.918-0.131-1.219-0.407c-0.299-0.275-0.445-0.658-0.445-1.123
		c0-0.526,0.223-0.941,0.656-1.229c0.432-0.286,1.041-0.43,1.814-0.446l0.816-0.021v-0.209c0-0.452-0.094-0.772-0.26-0.981
		c-0.16-0.2-0.423-0.312-0.826-0.312c-0.433,0-0.887,0.123-1.363,0.367c-0.064,0.035-0.145,0.006-0.172-0.063l-0.17-0.393
		c-0.023-0.061,0.004-0.137,0.063-0.162c0.558-0.262,1.113-0.394,1.663-0.394c0.561,0,1.006,0.146,1.305,0.461
		c0.303,0.315,0.439,0.794,0.439,1.403v3.287c0,0.068-0.059,0.128-0.126,0.128h-0.333c-0.063,0-0.117-0.05-0.129-0.108l-0.075-0.525
		c-0.209,0.231-0.433,0.402-0.657,0.516C143.377,43.227,143.049,43.296,142.674,43.296z M144.279,40.697l-0.73,0.031
		c-0.688,0.031-1.156,0.141-1.426,0.307c-0.252,0.156-0.381,0.396-0.381,0.747c0,0.28,0.086,0.483,0.24,0.629
		c0.16,0.144,0.393,0.222,0.719,0.222c0.502,0,0.883-0.142,1.155-0.414c0.274-0.273,0.423-0.656,0.423-1.167V40.697L144.279,40.697z
		"/>
	<path fill="#005CA6" d="M150.617,39.848l0.006,3.23c0,0.068-0.059,0.126-0.131,0.126h-0.441c-0.072,0-0.131-0.058-0.131-0.126
		v-3.204c0-0.483-0.102-0.808-0.278-0.997c-0.175-0.191-0.458-0.301-0.878-0.301c-0.573,0-0.965,0.146-1.209,0.41
		c-0.239,0.263-0.375,0.703-0.375,1.363l0.002,2.727c0,0.068-0.059,0.128-0.129,0.128h-0.451c-0.07,0-0.126-0.058-0.126-0.128v-4.94
		c0-0.069,0.056-0.128,0.126-0.128h0.382c0.06,0,0.119,0.053,0.126,0.113l0.051,0.396c0.369-0.408,0.93-0.603,1.652-0.603
		C150.01,37.915,150.617,38.583,150.617,39.848z"/>
	<path fill="#005CA6" d="M155.105,38.094l0.58-0.083c0.092,0,0.154,0.087,0.121,0.173l-2.213,5.739
		c-0.178,0.466-0.336,0.798-0.465,0.978c-0.133,0.177-0.289,0.313-0.474,0.404c-0.182,0.092-0.397,0.137-0.646,0.137
		c-0.188,0-0.393-0.035-0.613-0.1l-0.087-0.51c0-0.085,0.073-0.15,0.159-0.128c0.162,0.045,0.342,0.067,0.533,0.067
		c0.137,0,0.248-0.03,0.344-0.09c0.098-0.06,0.188-0.158,0.277-0.3c0.088-0.141,0.195-0.375,0.32-0.704l0.229-0.603l-1.875-4.896
		c-0.033-0.086,0.024-0.174,0.121-0.174h0.463l1.164,2.855c0.226,0.605,0.395,1.072,0.5,1.398c0.129-0.365,0.299-0.842,0.517-1.425
		L155.105,38.094z"/>
</g>
<image display="none" overflow="visible" enable-background="new    " width="181" height="46" xlink:href="webdetails-logo.png" >
</image>
<g>
	<g>
		<g>
			<path fill="#333E48" d="M58.893,21.687c0.7-2.739,1.417-5.472,2.131-8.207h2.83l-3.48,12.589h-2.811l-2.237-7.157
				c-0.073-0.228-0.182-0.616-0.326-1.16c-0.12,0.46-0.231,0.854-0.336,1.181l-2.304,7.135h-2.754L46.172,13.48h2.851l1.8,7.032
				c0.112,0.435,0.21,0.829,0.296,1.184c0.14-0.498,0.265-0.904,0.371-1.219l2.236-6.997h2.616l2.183,7.006
				C58.663,20.91,58.785,21.311,58.893,21.687z"/>
			<path fill="#333E48" d="M66.072,24.561c-1.097-1.16-1.617-2.745-1.617-4.691c0-1.952,0.48-3.561,1.491-4.774
				c1.025-1.222,2.407-1.828,4.092-1.828c1.574,0,2.865,0.526,3.818,1.604c0.944,1.063,1.395,2.448,1.395,4.106v1.595h-7.979
				c0.095,1.036,0.401,1.786,0.872,2.298c0.546,0.587,1.327,0.905,2.415,0.905c1.581,0,2.772-0.424,4.193-1.032v2.617
				c-0.7,0.302-1.404,0.576-2.154,0.728c-0.595,0.13-1.297,0.189-2.104,0.19C68.671,26.28,67.177,25.721,66.072,24.561z
				 M68.135,16.461c-0.377,0.416-0.644,0.98-0.779,1.718h5.024c-0.062-0.79-0.28-1.361-0.611-1.754
				c-0.386-0.464-0.946-0.719-1.752-0.719C69.2,15.706,68.59,15.967,68.135,16.461z"/>
			<path fill="#333E48" d="M79.993,14.312c0.846-0.686,1.917-1.021,3.185-1.022c1.649,0,2.98,0.571,3.927,1.748
				c0.943,1.155,1.381,2.752,1.381,4.726c0,1.976-0.443,3.583-1.39,4.756c-0.953,1.183-2.28,1.76-3.918,1.761
				c-0.816,0-1.579-0.149-2.276-0.455c-0.457-0.207-0.866-0.487-1.226-0.835v1.079h-2.39V10.08h2.725v3.014
				C80.012,13.52,80.006,13.926,79.993,14.312z M80.707,16.579c-0.429,0.555-0.695,1.576-0.695,3.184
				c0,1.605,0.272,2.64,0.715,3.215c0.423,0.544,1.129,0.862,2.239,0.862c0.948,0,1.592-0.331,2.018-0.963
				c0.455-0.68,0.714-1.705,0.714-3.135c0-1.973-0.376-4.014-2.775-4.014C81.81,15.729,81.115,16.047,80.707,16.579z"/>
			<path fill="#333E48" d="M98.438,14.31l-0.025-0.483V10.08h2.726v15.99h-2.483v-1.021c-0.872,0.827-2.022,1.231-3.409,1.232
				c-1.642,0-2.973-0.569-3.926-1.737c-0.935-1.155-1.371-2.757-1.371-4.737c0-3.39,1.456-6.538,5.296-6.538
				C96.51,13.268,97.584,13.613,98.438,14.31z M97.707,23.042c0.438-0.529,0.706-1.448,0.706-2.865v-0.371
				c0-1.62-0.277-2.656-0.725-3.224c-0.425-0.551-1.132-0.875-2.241-0.876c-0.883,0-1.521,0.334-1.977,0.999
				c-0.468,0.688-0.733,1.709-0.733,3.122c0,1.439,0.267,2.443,0.728,3.081c0.44,0.613,1.083,0.933,2.005,0.933
				C96.592,23.841,97.295,23.539,97.707,23.042z"/>
			<path fill="#333E48" d="M104.876,24.561c-1.095-1.16-1.615-2.745-1.615-4.691c0-1.952,0.479-3.561,1.491-4.774
				c1.025-1.222,2.406-1.828,4.091-1.828c1.575,0,2.864,0.526,3.819,1.604c0.943,1.063,1.394,2.448,1.394,4.106v1.595h-7.979
				c0.093,1.036,0.398,1.786,0.872,2.298c0.547,0.587,1.327,0.905,2.414,0.905c1.58,0,2.772-0.424,4.193-1.032v2.617
				c-0.699,0.302-1.403,0.576-2.155,0.728c-0.595,0.13-1.295,0.189-2.102,0.19C107.478,26.28,105.982,25.721,104.876,24.561z
				 M106.94,16.461c-0.377,0.416-0.646,0.98-0.779,1.718h5.024c-0.062-0.79-0.282-1.361-0.61-1.754
				c-0.387-0.464-0.947-0.719-1.753-0.719C108.004,15.706,107.396,15.967,106.94,16.461z"/>
			<path fill="#333E48" d="M121.424,23.804c0.429-0.072,0.823-0.191,1.241-0.314v2.294c-0.44,0.212-0.765,0.321-1.259,0.396
				c-0.394,0.069-0.749,0.102-1.068,0.102c-2.538,0-3.854-1.424-3.854-4.034l-0.002-6.657h-1.664v-2.58h1.664l0.002-2.93h2.724v2.93
				h3.373v2.58h-3.373v6.583c0,0.932,0.349,1.691,1.384,1.691C120.879,23.863,121.157,23.843,121.424,23.804z"/>
			<path fill="#333E48" d="M131.805,24.889c-0.429,0.432-0.874,0.759-1.337,0.968c-0.652,0.291-1.443,0.424-2.35,0.424
				c-1.236,0-2.268-0.32-3.04-1.017c-0.773-0.707-1.133-1.695-1.133-2.891c0-2.781,2.301-4.058,6.098-4.173l1.507-0.048v-0.253
				c0-0.856-0.19-1.389-0.47-1.692c-0.262-0.294-0.729-0.499-1.52-0.5c-1.269,0-2.429,0.528-3.543,1.069l-0.893-2.224
				c0.769-0.417,1.511-0.759,2.363-0.981c0.723-0.186,1.45-0.279,2.178-0.28c1.445,0,2.612,0.318,3.402,1.05
				c0.811,0.744,1.163,1.888,1.163,3.314v8.416h-2.427V24.889z M130.711,23.096c0.513-0.488,0.796-1.19,0.796-2.176v-0.546
				l-1.261,0.052c-1.379,0.049-2.284,0.267-2.795,0.585c-0.455,0.281-0.696,0.712-0.696,1.383c0,0.537,0.155,0.87,0.405,1.088
				c0.273,0.234,0.689,0.381,1.309,0.381C129.473,23.863,130.201,23.589,130.711,23.096z"/>
			<rect x="136.63" y="13.48" fill="#333E48" width="2.725" height="12.589"/>
			<rect x="142.124" y="10.08" fill="#333E48" width="2.726" height="15.99"/>
			<path fill="#333E48" d="M154.408,25.309c-0.918,0.668-2.164,0.971-3.677,0.972c-1.52,0-2.76-0.182-4.087-0.933v-2.699
				c0.786,0.399,1.529,0.766,2.393,0.985c0.607,0.153,1.188,0.229,1.737,0.229c0.879,0,1.485-0.14,1.875-0.368
				c0.343-0.206,0.505-0.491,0.505-0.933c0-0.287-0.119-0.542-0.418-0.783c-0.32-0.269-1.016-0.628-2.153-1.068
				c-1.088-0.405-1.902-0.77-2.407-1.098c-0.499-0.334-0.899-0.731-1.17-1.188c-0.269-0.469-0.394-1.013-0.394-1.611
				c0-1.102,0.459-1.994,1.359-2.63c0.879-0.63,2.046-0.917,3.449-0.917c1.606,0,2.846,0.371,4.306,0.994l-1.009,2.309
				c-1.098-0.451-2.218-0.864-3.424-0.865c-0.604,0-2.043,0.068-2.043,0.993c0,0.228,0.053,0.387,0.142,0.512
				c0.106,0.145,0.299,0.309,0.619,0.489c0.317,0.178,0.962,0.452,1.968,0.826c1.39,0.507,2.408,1.04,2.971,1.637
				c0.584,0.608,0.865,1.369,0.865,2.253C155.815,23.635,155.352,24.622,154.408,25.309z"/>
		</g>
		<rect x="136.63" y="10.08" fill="#333E48" width="2.725" height="1.325"/>
	</g>
	<path fill="#005CA6" d="M18.116,0c5.141,0,9.78,2.142,13.078,5.579L20.774,18.185l0.001-3.458c0-1.045-0.838-1.873-1.873-1.873
		c-0.708,0.001-1.317,0.379-1.639,0.942l-3.553,4.388v-3.482c0-1.021-0.837-1.848-1.872-1.848c-1.042,0.001-1.879,0.828-1.879,1.848
		L9.958,23.47c0,1.062,0.838,1.889,1.872,1.889c0.728,0,1.354-0.402,1.667-0.993l3.526-4.354l-0.001,3.458
		c0,0.997,0.735,1.784,1.677,1.879c0.612,0.074,1.244-0.155,1.658-0.666l13.2-16.043c1.696,2.757,2.675,6.004,2.675,9.479
		c0,10.005-8.111,18.116-18.117,18.116C8.111,36.233,0,28.123,0,18.118C0,8.111,8.111,0,18.116,0z"/>
</g>
</svg>
