<?xml version="1.0" encoding="utf-8"?>
<!-- Generator: Adobe Illustrator 16.0.0, SVG Export Plug-In . SVG Version: 6.00 Build 0)  -->
<!DOCTYPE svg PUBLIC "-//W3C//DTD SVG 1.1//EN" "http://www.w3.org/Graphics/SVG/1.1/DTD/svg11.dtd">
<svg version="1.1" id="Layer_1" xmlns="http://www.w3.org/2000/svg" xmlns:xlink="http://www.w3.org/1999/xlink" x="0px" y="0px"
	 width="194px" height="57px" viewBox="0 -11 194 57" enable-background="new 0 -11 194 57" xml:space="preserve">
<image display="none" overflow="visible" enable-background="new    " width="181" height="46" xlink:href="webdetails-logo.png" >
</image>
<g>
	<g>
		<path fill="#005CA6" d="M88.527,42.697c-1.015,0-1.851-0.516-2.326-1.336V46h-1.633V35.671h1.633v1.152
			c0.476-0.814,1.294-1.35,2.308-1.35c2.052,0,3.325,1.71,3.325,3.601C91.834,40.967,90.542,42.697,88.527,42.697z M88.189,36.887
			c-1.171,0-1.967,0.993-1.989,2.148c0,1.193,0.773,2.251,1.989,2.251c1.17,0,1.991-0.993,1.991-2.188
			C90.18,37.861,89.361,36.887,88.189,36.887z"/>
		<path fill="#005CA6" d="M96.333,35.452c2.271,0,3.425,1.714,3.425,3.624c0,0.103,0,0.3-0.022,0.399h-5.254
			c0,1.193,0.979,1.987,2.19,1.987c0.857,0,1.553-0.374,2.132-0.853l0.834,0.875c-0.677,0.579-1.532,1.214-3.165,1.214
			c-2.409,0-3.679-1.73-3.679-3.625C92.791,37.184,94.063,35.452,96.333,35.452z M94.46,38.497h3.744
			c-0.078-0.993-0.855-1.87-1.871-1.87C95.299,36.629,94.543,37.504,94.46,38.497z"/>
		<path fill="#005CA6" d="M102.582,42.421h-1.656v-6.75h1.656v0.916c0.34-0.634,1.094-1.135,2.009-1.135
			c2.01,0,2.824,1.296,2.824,3.285v3.682h-1.632v-3.682c0-1.373-0.612-1.951-1.593-1.951c-0.877,0-1.595,0.578-1.612,1.891v3.744
			H102.582L102.582,42.421z"/>
		<path fill="#005CA6" d="M109.368,38.38v-1.355h-0.958v-1.354h0.958v-2.284h1.649v2.284h1.437v1.354h-1.437v1.313
			c0,2.151,0.101,2.849,0.88,2.849c0.136,0,0.319-0.043,0.476-0.06l0.2,1.253c-0.479,0.159-0.837,0.24-1.155,0.24
			C109.368,42.619,109.368,41.166,109.368,38.38z"/>
		<path fill="#005CA6" d="M116.748,35.452c1.034,0,1.829,0.538,2.328,1.374v-1.155h1.61v6.75h-1.61v-1.074
			c-0.482,0.815-1.295,1.351-2.309,1.351c-2.05,0-3.326-1.71-3.326-3.602C113.446,37.202,114.734,35.452,116.748,35.452z
			 M117.086,41.267c1.173,0,1.971-1.019,1.971-2.192c0-1.17-0.798-2.209-1.971-2.209c-1.175,0-1.993,1.017-1.993,2.209
			C115.096,40.308,115.911,41.267,117.086,41.267z"/>
		<path fill="#005CA6" d="M123.779,42.421h-1.632V28.088h1.632v8.499c0.361-0.638,1.096-1.138,2.008-1.138
			c2.037,0,2.848,1.294,2.848,3.286v3.682h-1.648v-3.682c0-1.376-0.619-1.953-1.576-1.953c-0.896,0-1.634,0.577-1.634,1.89v3.747
			h0.003V42.421z"/>
		<path fill="#005CA6" d="M129.629,39.035c0-1.893,1.236-3.584,3.625-3.584c2.409,0,3.644,1.673,3.644,3.584
			c0,1.912-1.237,3.603-3.644,3.603C130.865,42.638,129.629,40.928,129.629,39.035z M135.267,39.035c0-1.436-0.88-2.389-2.013-2.389
			c-1.109,0-1.988,0.953-1.988,2.389c0,1.475,0.853,2.428,1.988,2.428C134.389,41.463,135.267,40.51,135.267,39.035z"/>
		<path fill="#005CA6" d="M71.521,42.823l3.341-8.924l0.516-0.1l3.576,8.809l-0.813,0.213l-1.323-3.064l-3.315-0.003l-1.17,2.967
			L71.521,42.823z M75.188,35.421c-0.07,0.205-0.138,0.4-0.213,0.58l-1.135,2.905h2.653l-1.098-2.916
			C75.331,35.83,75.263,35.649,75.188,35.421z"/>
		<path fill="#005CA6" d="M143.067,37.041c0.542-0.592,1.277-0.884,2.189-0.884c0.538,0,1.057,0.092,1.551,0.279
			c0.073,0.026,0.113,0.112,0.09,0.19l-0.149,0.486c-0.026,0.08-0.115,0.127-0.195,0.099c-0.511-0.171-0.944-0.252-1.308-0.252
			c-0.701,0-1.213,0.22-1.557,0.635c-0.344,0.416-0.533,1.027-0.533,1.861c0,0.785,0.181,1.389,0.533,1.811
			c0.344,0.419,0.832,0.631,1.478,0.631c0.527,0,1.015-0.092,1.461-0.279c0.106-0.046,0.213,0.026,0.213,0.141v0.508
			c0,0.053-0.038,0.114-0.086,0.14c-0.411,0.203-0.94,0.296-1.577,0.296c-0.895,0-1.613-0.283-2.135-0.862
			c-0.521-0.581-0.769-1.375-0.769-2.375C142.272,38.449,142.532,37.633,143.067,37.041z"/>
		<path fill="#005CA6" d="M149.154,42.301c-0.429-0.276-0.757-0.662-0.979-1.163c-0.229-0.497-0.333-1.071-0.333-1.712
			c0-1.006,0.24-1.81,0.751-2.393c0.51-0.587,1.206-0.876,2.073-0.876c0.863,0,1.558,0.289,2.06,0.889
			c0.502,0.588,0.739,1.388,0.739,2.38c0,1.002-0.24,1.81-0.749,2.401c-0.509,0.59-1.207,0.878-2.085,0.881
			C150.079,42.708,149.587,42.571,149.154,42.301z M152.071,41.267c0.336-0.432,0.517-1.037,0.517-1.841
			c0-0.809-0.181-1.415-0.521-1.834c-0.333-0.415-0.799-0.632-1.427-0.632c-0.622,0-1.086,0.212-1.412,0.632
			c-0.328,0.417-0.504,1.021-0.504,1.834c0.002,0.808,0.179,1.409,0.509,1.841c0.331,0.42,0.799,0.633,1.422,0.633
			C151.282,41.897,151.741,41.685,152.071,41.267z"/>
		<path fill="#005CA6" d="M161.252,36.157c0.685,0,1.22,0.185,1.588,0.574c0.372,0.393,0.538,0.995,0.538,1.778v3.934l-0.685,0.15
			l-0.171-4.095c0-0.573-0.109-0.954-0.306-1.185c-0.191-0.227-0.486-0.348-0.934-0.348c-0.588,0-0.99,0.16-1.249,0.453
			c-0.262,0.302-0.402,0.788-0.402,1.497v3.526l-0.704,0.15l-0.164-4.261c0-0.94-0.409-1.367-1.242-1.372
			c-0.602,0-1.006,0.178-1.255,0.496c-0.258,0.325-0.398,0.87-0.398,1.662v3.322l-0.688,0.151l-0.168-6.163l0.594-0.158l0.215,0.624
			c0.159-0.192,0.354-0.35,0.584-0.472c0.33-0.18,0.688-0.268,1.081-0.268c0.884,0,1.524,0.3,1.859,0.924
			c0.181-0.256,0.419-0.47,0.701-0.631C160.405,36.255,160.806,36.157,161.252,36.157z"/>
		<path fill="#005CA6" d="M169.915,37.016c0.457,0.571,0.675,1.384,0.677,2.422c0,1.009-0.23,1.816-0.716,2.402
			c-0.479,0.581-1.132,0.868-1.947,0.868c-0.794,0-1.434-0.236-1.896-0.738c0.016,0.277,0.023,0.58,0.023,0.903v2.29l-0.688,0.154
			c-0.064,0.007-0.117-0.04-0.117-0.1l-0.05-8.788l0.605-0.154c0.052-0.006,0.108,0.03,0.115,0.083l0.104,0.573
			c0.447-0.521,1.099-0.774,1.912-0.774C168.785,36.157,169.452,36.437,169.915,37.016z M167.938,36.963
			c-0.674,0-1.14,0.188-1.425,0.53c-0.294,0.34-0.458,0.917-0.458,1.78v0.178c0,0.933,0.159,1.558,0.439,1.915
			c0.274,0.354,0.734,0.547,1.424,0.547c0.568,0,0.995-0.209,1.3-0.626c0.312-0.419,0.479-1.024,0.479-1.825
			C169.7,37.727,169.092,36.963,167.938,36.963z"/>
		<path fill="#005CA6" d="M173.689,42.708c-0.618,0-1.117-0.159-1.483-0.496c-0.363-0.335-0.542-0.801-0.542-1.367
			c0-0.64,0.271-1.145,0.799-1.495c0.525-0.349,1.268-0.523,2.209-0.543l0.993-0.025v-0.254c0-0.551-0.114-0.94-0.316-1.195
			c-0.195-0.244-0.515-0.38-1.006-0.38c-0.526,0-1.079,0.15-1.659,0.447c-0.078,0.043-0.176,0.008-0.21-0.076l-0.207-0.48
			c-0.027-0.073,0.005-0.166,0.078-0.196c0.678-0.319,1.354-0.479,2.023-0.479c0.683,0,1.224,0.178,1.589,0.562
			c0.369,0.384,0.534,0.966,0.534,1.708v4.002c0,0.083-0.071,0.155-0.152,0.155h-0.407c-0.076,0-0.142-0.061-0.156-0.132
			l-0.091-0.64c-0.254,0.281-0.527,0.489-0.801,0.629C174.546,42.624,174.146,42.708,173.689,42.708z M175.645,39.545l-0.89,0.037
			c-0.837,0.038-1.407,0.172-1.735,0.374c-0.307,0.19-0.464,0.482-0.464,0.908c0,0.343,0.104,0.59,0.292,0.767
			c0.195,0.175,0.479,0.27,0.875,0.27c0.611,0,1.075-0.172,1.406-0.504c0.334-0.333,0.516-0.799,0.516-1.419V39.545L175.645,39.545z
			"/>
		<path fill="#005CA6" d="M183.36,38.51l0.007,3.934c0,0.083-0.071,0.152-0.159,0.152h-0.537c-0.089,0-0.159-0.069-0.159-0.152
			v-3.901c0-0.588-0.124-0.983-0.338-1.213c-0.214-0.233-0.559-0.367-1.07-0.367c-0.696,0-1.175,0.179-1.472,0.5
			c-0.29,0.319-0.456,0.855-0.456,1.659l0.002,3.319c0,0.084-0.071,0.155-0.157,0.155h-0.549c-0.085,0-0.152-0.069-0.152-0.155
			v-6.013c0-0.086,0.067-0.157,0.152-0.157h0.466c0.073,0,0.145,0.064,0.152,0.138l0.063,0.483c0.45-0.497,1.132-0.735,2.011-0.735
			C182.621,36.157,183.36,36.971,183.36,38.51z"/>
		<path fill="#005CA6" d="M188.824,36.375l0.706-0.1c0.111,0,0.187,0.104,0.147,0.209l-2.695,6.986
			c-0.216,0.567-0.409,0.972-0.566,1.19c-0.161,0.217-0.351,0.382-0.576,0.492c-0.221,0.111-0.483,0.166-0.787,0.166
			c-0.229,0-0.478-0.041-0.746-0.12l-0.104-0.621c0-0.104,0.088-0.184,0.192-0.155c0.197,0.055,0.416,0.081,0.648,0.081
			c0.167,0,0.303-0.036,0.419-0.109c0.119-0.073,0.229-0.192,0.338-0.365c0.107-0.172,0.237-0.457,0.39-0.856l0.278-0.734
			l-2.282-5.961c-0.041-0.104,0.028-0.212,0.146-0.212h0.564l1.417,3.476c0.275,0.736,0.479,1.307,0.608,1.701
			c0.157-0.443,0.363-1.024,0.63-1.733L188.824,36.375z"/>
	</g>
	<g>
		<g>
			<g>
				<path fill="#333E48" d="M71.696,16.401c0.852-3.335,1.725-6.662,2.594-9.991h3.445l-4.236,15.325h-3.422l-2.723-8.712
					c-0.089-0.278-0.222-0.75-0.397-1.412c-0.146,0.56-0.281,1.04-0.409,1.438l-2.805,8.687H60.39L56.209,6.411h3.471l2.192,8.561
					c0.136,0.528,0.256,1.008,0.36,1.44c0.17-0.606,0.322-1.1,0.452-1.484l2.722-8.518h3.185l2.657,8.529
					C71.416,15.456,71.564,15.944,71.696,16.401z"/>
				<path fill="#333E48" d="M80.435,19.9c-1.335-1.412-1.968-3.341-1.968-5.71c0-2.376,0.584-4.335,1.815-5.812
					c1.248-1.488,2.931-2.226,4.982-2.226c1.916,0,3.487,0.64,4.648,1.953c1.148,1.294,1.698,2.98,1.698,4.999v1.941h-9.714
					c0.116,1.262,0.488,2.175,1.062,2.798c0.665,0.714,1.616,1.101,2.94,1.101c1.924,0,3.374-0.516,5.104-1.255v3.186
					c-0.852,0.367-1.709,0.702-2.622,0.886c-0.725,0.158-1.579,0.229-2.562,0.232C83.6,21.992,81.78,21.312,80.435,19.9z
					 M82.947,10.04c-0.459,0.506-0.784,1.193-0.948,2.092h6.116c-0.076-0.962-0.341-1.658-0.744-2.136
					c-0.47-0.565-1.151-0.875-2.133-0.875C84.244,9.121,83.5,9.438,82.947,10.04z"/>
				<path fill="#333E48" d="M97.383,7.423c1.029-0.835,2.334-1.243,3.877-1.244c2.009,0,3.629,0.695,4.781,2.128
					c1.147,1.406,1.681,3.35,1.681,5.753c0,2.405-0.539,4.362-1.691,5.789c-1.161,1.441-2.776,2.143-4.771,2.145
					c-0.993,0-1.921-0.182-2.771-0.554c-0.557-0.252-1.055-0.593-1.493-1.017v1.314h-2.908V2.271h3.316v3.669
					C97.406,6.459,97.398,6.954,97.383,7.423z M98.252,10.183c-0.522,0.675-0.846,1.918-0.846,3.876c0,1.954,0.331,3.214,0.87,3.914
					c0.516,0.662,1.375,1.049,2.726,1.049c1.154,0,1.938-0.403,2.456-1.172c0.555-0.828,0.87-2.076,0.87-3.816
					c0-2.402-0.458-4.887-3.379-4.887C99.595,9.148,98.749,9.536,98.252,10.183z"/>
				<path fill="#333E48" d="M119.837,7.421l-0.03-0.588V2.271h3.319v19.466h-3.022v-1.244c-1.063,1.007-2.462,1.498-4.15,1.5
					c-1.999,0-3.62-0.693-4.78-2.115c-1.138-1.405-1.668-3.356-1.668-5.767c0-4.127,1.772-7.959,6.447-7.959
					C117.49,6.152,118.798,6.572,119.837,7.421z M118.947,18.051c0.533-0.644,0.859-1.762,0.859-3.487v-0.452
					c0-1.973-0.338-3.234-0.883-3.925c-0.516-0.671-1.376-1.065-2.728-1.066c-1.074,0-1.852,0.406-2.406,1.216
					c-0.57,0.838-0.894,2.081-0.894,3.801c0,1.752,0.326,2.974,0.887,3.751c0.535,0.747,1.318,1.136,2.442,1.136
					C117.59,19.024,118.446,18.656,118.947,18.051z"/>
				<path fill="#333E48" d="M127.675,19.9c-1.332-1.412-1.967-3.341-1.967-5.71c0-2.376,0.585-4.335,1.816-5.812
					c1.248-1.488,2.93-2.226,4.979-2.226c1.918,0,3.487,0.64,4.65,1.953c1.148,1.294,1.697,2.98,1.697,4.999v1.941h-9.714
					c0.113,1.262,0.483,2.175,1.062,2.798c0.666,0.714,1.614,1.101,2.938,1.101c1.924,0,3.374-0.516,5.105-1.255v3.186
					c-0.852,0.367-1.71,0.702-2.625,0.886c-0.724,0.158-1.577,0.229-2.559,0.232C130.843,21.992,129.022,21.312,127.675,19.9z
					 M130.187,10.04c-0.458,0.506-0.785,1.193-0.946,2.092h6.116c-0.076-0.962-0.345-1.658-0.743-2.136
					c-0.472-0.565-1.152-0.875-2.134-0.875C131.483,9.121,130.743,9.438,130.187,10.04z"/>
				<path fill="#333E48" d="M147.82,18.979c0.522-0.088,1.003-0.233,1.511-0.383v2.793c-0.536,0.258-0.931,0.391-1.532,0.481
					c-0.48,0.084-0.912,0.124-1.301,0.124c-3.089,0-4.691-1.733-4.691-4.91l-0.002-8.104h-2.025V5.84h2.025l0.002-3.567h3.315V5.84
					h4.106v3.14h-4.106v8.014c0,1.135,0.426,2.059,1.686,2.059C147.157,19.051,147.496,19.027,147.82,18.979z"/>
				<path fill="#333E48" d="M160.458,20.299c-0.522,0.525-1.063,0.925-1.627,1.179c-0.794,0.354-1.757,0.516-2.861,0.516
					c-1.505,0-2.762-0.39-3.7-1.239c-0.942-0.861-1.38-2.064-1.38-3.519c0-3.386,2.802-4.94,7.424-5.08l1.835-0.059V11.79
					c0-1.042-0.232-1.69-0.572-2.06c-0.319-0.357-0.888-0.607-1.851-0.608c-1.545,0-2.958,0.643-4.313,1.301l-1.088-2.707
					c0.936-0.507,1.839-0.924,2.876-1.195c0.881-0.226,1.767-0.339,2.652-0.341c1.758,0,3.18,0.387,4.141,1.278
					c0.988,0.906,1.417,2.298,1.417,4.034v10.245h-2.956v-1.438H160.458z M159.126,18.117c0.626-0.595,0.97-1.449,0.97-2.649v-0.665
					l-1.535,0.064c-1.679,0.059-2.781,0.324-3.402,0.712c-0.555,0.342-0.849,0.867-0.849,1.683c0,0.654,0.189,1.059,0.494,1.325
					c0.333,0.285,0.839,0.464,1.593,0.464C157.619,19.051,158.506,18.717,159.126,18.117z"/>
				<rect x="166.332" y="6.411" fill="#333E48" width="3.318" height="15.325"/>
				<rect x="173.021" y="2.271" fill="#333E48" width="3.318" height="19.466"/>
				<path fill="#333E48" d="M187.976,20.811c-1.118,0.813-2.635,1.182-4.478,1.184c-1.851,0-3.359-0.221-4.974-1.137v-3.285
					c0.955,0.485,1.86,0.933,2.912,1.199c0.739,0.187,1.445,0.28,2.114,0.28c1.069,0,1.809-0.171,2.282-0.449
					c0.418-0.25,0.616-0.598,0.616-1.136c0-0.35-0.146-0.66-0.51-0.954c-0.39-0.327-1.235-0.765-2.621-1.3
					c-1.324-0.493-2.314-0.938-2.931-1.337c-0.606-0.406-1.094-0.89-1.424-1.446c-0.328-0.57-0.48-1.233-0.48-1.961
					c0-1.341,0.559-2.427,1.655-3.201c1.069-0.767,2.491-1.117,4.198-1.117c1.955,0,3.465,0.452,5.243,1.21l-1.229,2.811
					c-1.336-0.549-2.7-1.051-4.168-1.053c-0.734,0-2.486,0.083-2.486,1.209c0,0.277,0.063,0.471,0.173,0.623
					c0.129,0.176,0.364,0.376,0.754,0.595c0.386,0.217,1.17,0.55,2.395,1.005c1.692,0.618,2.932,1.267,3.618,1.993
					c0.711,0.74,1.051,1.666,1.051,2.743C189.687,18.773,189.124,19.975,187.976,20.811z"/>
			</g>
			<rect x="166.332" y="2.271" fill="#333E48" width="3.318" height="1.612"/>
		</g>
		<path fill="#005CA6" d="M22.054-10c6.259,0,11.906,2.608,15.921,6.792L25.29,12.138l0.001-4.21c0-1.271-1.02-2.28-2.28-2.28
			c-0.862,0.001-1.603,0.461-1.995,1.146l-4.325,5.342V7.898c0-1.243-1.019-2.25-2.279-2.25c-1.269,0.001-2.287,1.008-2.287,2.25
			l-0.001,10.674c0,1.292,1.02,2.3,2.279,2.3c0.886,0,1.648-0.49,2.029-1.209l4.292-5.3l-0.001,4.209
			c0,1.213,0.895,2.172,2.042,2.288c0.745,0.089,1.514-0.19,2.019-0.811L40.852,0.518c2.064,3.357,3.256,7.31,3.256,11.54
			c0,12.18-9.874,22.053-22.055,22.053C9.874,34.108,0,24.236,0,12.057C0-0.126,9.874-10,22.054-10z"/>
	</g>
</g>
</svg>
