<?xml version="1.0" encoding="utf-8"?>
<!-- Generator: Adobe Illustrator 18.1.1, SVG Export Plug-In . SVG Version: 6.00 Build 0)  -->
<svg version="1.1"
	 id="svg2" inkscape:version="0.48.2 r9819" sodipodi:docname="Twitter bird.svg" xmlns:cc="http://creativecommons.org/ns#" xmlns:svg="http://www.w3.org/2000/svg" xmlns:inkscape="http://www.inkscape.org/namespaces/inkscape" xmlns:dc="http://purl.org/dc/elements/1.1/" xmlns:rdf="http://www.w3.org/1999/02/22-rdf-syntax-ns#" xmlns:sodipodi="http://sodipodi.sourceforge.net/DTD/sodipodi-0.dtd"
	 xmlns="http://www.w3.org/2000/svg" xmlns:xlink="http://www.w3.org/1999/xlink" x="0px" y="0px" width="200px" height="163.7px"
	 viewBox="6 -56.7 200 163.7" enable-background="new 6 -56.7 200 163.7" xml:space="preserve">
<polygon fill="#FFFFFF" points="80.9,-56.7 75.2,-32.9 74.6,-32.9 68.7,-56.7 59.4,-56.7 70.3,-20.7 70.3,2.9 79.6,2.9 79.6,-21.8 
	90.2,-56.7 "/>
<g>
	<path fill="none" d="M101.6-34.5c-1,0-1.8,0.3-2.4,0.9c-0.6,0.6-1,1.4-1,2.3v23.9c0,1.2,0.3,2.2,0.9,2.8c0.6,0.6,1.4,1,2.5,1
		c1.1,0,2-0.3,2.7-1c0.6-0.6,1-1.6,1-2.7v-23.9c0-1-0.3-1.8-1-2.3C103.5-34.3,102.6-34.5,101.6-34.5z"/>
	<path fill="#FFFFFF" d="M110.3-38.9c-2.2-2.1-4.9-3.2-8.3-3.2c-3.7,0-6.7,1-8.9,3c-2.2,2-3.3,4.8-3.3,8.2v22.8c0,3.7,1,6.7,3.2,8.9
		c2.1,2.2,5,3.3,8.6,3.3c3.7,0,6.6-1,8.7-3.2s3.1-5.1,3.1-8.9v-22.7C113.6-34.1,112.4-36.8,110.3-38.9z M105.2-7.4
		c0,1.2-0.3,2.1-1,2.7c-0.6,0.6-1.5,1-2.7,1c-1,0-1.9-0.3-2.5-1c-0.6-0.6-0.9-1.6-0.9-2.8v-23.9c0-1,0.3-1.8,1-2.3
		c0.6-0.6,1.5-0.9,2.4-0.9c1,0,1.9,0.3,2.6,0.9c0.6,0.6,1,1.4,1,2.3L105.2-7.4L105.2-7.4z"/>
</g>
<path fill="#FFFFFF" d="M135.6-41v33.4c-0.8,1-1.6,1.8-2.5,2.3c-0.9,0.6-1.7,0.9-2.3,0.9c-0.8,0-1.3-0.2-1.7-0.7
	c-0.3-0.5-0.5-1.2-0.5-2.3v-33.7h-8.2v36.8c0,2.6,0.5,4.6,1.5,5.9c1,1.3,2.4,1.9,4.3,1.9c1.5,0,3.1-0.5,4.8-1.4
	c1.6-1,3.2-2.3,4.7-4.1v4.8h8.2V-41C143.8-41,135.6-41,135.6-41z"/>
<g>
	<path fill="#FFFFFF" d="M120.3,50.9c-0.6,0-1.1,0.2-1.7,0.4c-0.6,0.3-1.1,0.7-1.7,1.4v27.4c0.6,0.7,1.3,1.2,1.9,1.5
		c0.6,0.3,1.3,0.5,1.9,0.5c1,0,1.8-0.3,2.2-0.9c0.5-0.6,0.7-1.6,0.7-3.1V55.5c0-1.5-0.3-2.6-0.9-3.4S121.4,50.9,120.3,50.9z"/>
	<path fill="#FFFFFF" d="M172.6,34.3c0-10.6-8.7-19.2-19.5-19.2c-14.5-0.6-29.5-0.9-44.6-0.9c-0.8,0-1.6,0-2.3,0c-0.8,0-1.6,0-2.3,0
		c-15.2,0-30,0.3-44.6,0.9c-10.7,0-19.5,8.6-19.5,19.2c-0.6,8.4-1,16.8-0.9,25.2c0,8.4,0.2,16.8,0.9,25.2c0,10.6,8.7,19.2,19.5,19.2
		c15.3,0.6,31,0.9,47,0.9s31.7-0.2,47-0.9c10.7,0,19.5-8.6,19.5-19.2c0.6-8.4,0.9-16.8,0.9-25.2C173.5,51.1,173.2,42.7,172.6,34.3z
		 M67.9,88.4h-9.2v-51h-9.4v-8.6h28.3v8.6h-9.6V88.4z M100.7,88.4h-8.2v-4.8c-1.5,1.8-3.1,3.1-4.7,4.1c-1.6,1-3.2,1.4-4.8,1.4
		c-1.9,0-3.3-0.6-4.3-1.9c-1-1.3-1.5-3.2-1.5-5.9V44.5h8.2v33.7c0,1,0.2,1.8,0.5,2.3c0.3,0.5,0.9,0.7,1.7,0.7c0.6,0,1.4-0.3,2.3-1
		c0.9-0.6,1.8-1.4,2.5-2.3V44.5h8.2v43.9H100.7z M132.1,79.4c0,3.1-0.6,5.5-1.9,7.2c-1.3,1.7-3.1,2.5-5.6,2.5c-1.6,0-3-0.3-4.3-1
		c-1.2-0.6-2.4-1.6-3.5-3v3.4h-8.2V28.9h8.2V48c1.1-1.4,2.3-2.3,3.5-3.1c1.2-0.7,2.5-1,3.8-1c2.6,0,4.5,1,5.9,2.8
		c1.4,1.9,2,4.6,2,8.2L132.1,79.4L132.1,79.4z M162.3,67.5h-15.6v8.3c0,2.3,0.2,3.9,0.8,4.8c0.6,0.9,1.5,1.4,2.7,1.4
		c1.4,0,2.3-0.4,2.8-1.1c0.6-0.7,0.8-2.4,0.8-5v-3.1h8.4v3.3c0,4.5-1,7.9-3.1,10.2c-2,2.3-5.1,3.4-9.2,3.4c-3.6,0-6.5-1.2-8.6-3.6
		c-2.1-2.4-3.1-5.7-3.1-9.9V56.3c0-3.8,1.1-6.9,3.5-9.3c2.3-2.4,5.2-3.6,9-3.6s6.6,1.1,8.6,3.3c2,2.3,3,5.4,3,9.6V67.5z"/>
	<path fill="#FFFFFF" d="M150.4,51.1c-1.3,0-2.3,0.4-2.8,1.2c-0.6,0.8-0.9,2.1-0.9,4v4.4h7.2v-4.4c0-1.9-0.3-3.1-0.9-4
		C152.5,51.5,151.6,51.1,150.4,51.1z"/>
</g>
</svg>
