<svg id="Layer_1" data-name="Layer 1" xmlns="http://www.w3.org/2000/svg" width="14" height="14.01" viewBox="0 0 14 14.01"><defs><style>.cls-1{fill:#ce0000;}</style></defs><title>copy-icon</title><path class="cls-1" d="M4.78,14c.18,0,.29,0,.39,0h7.6a1,1,0,0,0,.34-.06A1.3,1.3,0,0,0,14,12.57V2.77a3.27,3.27,0,0,0,0-.38,1.29,1.29,0,0,0-1-1.1c-.22-.05-.32,0-.31.24,0,.53,0,1.07,0,1.61a1.93,1.93,0,0,1-1.91,1.95H7.06a1.93,1.93,0,0,1-2-2c0-.54,0-1.07,0-1.61,0-.24-.09-.28-.3-.23a1.32,1.32,0,0,0-1,1.38c0,1.24,0,2.49,0,3.73a.61.61,0,0,0,.2.48c1.24,1.23,2.48,2.48,3.72,3.71.17.17.19.27,0,.45-.9.88-1.79,1.78-2.68,2.67ZM8.87,3.84h1.91a.6.6,0,0,0,.68-.59,11.23,11.23,0,0,0,0-1.39.62.62,0,0,0-.65-.6c-.59,0-.59,0-.62-.62A.6.6,0,0,0,9.52,0H8.32a.62.62,0,0,0-.72.69c0,.55,0,.55-.59.57a.65.65,0,0,0-.7.67q0,.63,0,1.25a.63.63,0,0,0,.7.65H8.87ZM2.52,13.51l.1,0L5.13,11c.15-.14.07-.22,0-.33L2.73,8.27,2.52,8.1V9.48c0,.68,0,.68-.69.68H0v1.3H1.83c.69,0,.69,0,.69.69Z"/><path class="cls-1" d="M4.78,14,5,13.71c.89-.89,1.78-1.79,2.68-2.67.19-.18.17-.28,0-.45L4,6.88a.61.61,0,0,1-.2-.48c0-1.24,0-2.49,0-3.73a1.33,1.33,0,0,1,1-1.38c.21,0,.3,0,.3.23,0,.54,0,1.07,0,1.61a1.92,1.92,0,0,0,2,2h3.68a1.93,1.93,0,0,0,2-1.91s0,0,0,0c0-.54,0-1.07,0-1.61,0-.26.09-.29.31-.24a1.29,1.29,0,0,1,1,1.1,3.27,3.27,0,0,1,0,.38v9.8a1.3,1.3,0,0,1-.89,1.38,1,1,0,0,1-.34.06H5.17A3.46,3.46,0,0,1,4.78,14Z"/><path class="cls-1" d="M8.87,3.84H7a.63.63,0,0,1-.7-.65c0-.42,0-.83,0-1.25A.66.66,0,0,1,7,1.26c.57,0,.57,0,.59-.57A.63.63,0,0,1,8.32,0h1.2a.6.6,0,0,1,.65.64c0,.59,0,.59.62.62a.62.62,0,0,1,.65.6,11.23,11.23,0,0,1,0,1.39.6.6,0,0,1-.68.59H8.87Z"/><path class="cls-1" d="M2.52,13.51V12.15c0-.69,0-.69-.69-.69H0v-1.3H1.83c.69,0,.69,0,.69-.68V8.1l.21.17,2.37,2.36c.11.11.18.19,0,.33L2.62,13.46Z"/></svg>